<svg width="20" height="15" viewBox="0 0 20 15" fill="none" xmlns="http://www.w3.org/2000/svg">
<g clip-path="url(#clip0_6197_16212)">
<g clip-path="url(#clip1_6197_16212)">
<path fill-rule="evenodd" clip-rule="evenodd" d="M0.307739 8.35549L0.307739 6.81013H15.0139C14.9544 6.76259 14.8954 6.71373 14.8369 6.66352C13.57 5.5766 12.5635 3.87111 12.5635 1.37682V0.754396L13.9956 0.754395V1.37682C13.9956 3.35464 14.77 4.63057 15.7294 5.45365C16.7153 6.29949 17.9126 6.67542 18.6919 6.75697L19.2676 6.8172L19.1882 7.48217V7.71983L19.2676 8.38481L18.6919 8.44505C17.9126 8.52658 16.7153 8.90252 15.7294 9.74837C14.77 10.5714 13.9956 11.8474 13.9956 13.8252V14.4476H12.5635V13.8252C12.5635 11.3309 13.57 9.6254 14.8369 8.5385C14.9104 8.47537 14.9848 8.41439 15.0599 8.35549H0.307739Z" fill="white"/>
</g>
</g>
<defs>
<clipPath id="clip0_6197_16212">
<rect width="18.9598" height="14.7465" fill="white" transform="translate(0.307983 0.227539)"/>
</clipPath>
<clipPath id="clip1_6197_16212">
<rect width="18.9598" height="14.7465" fill="white" transform="translate(0.307983 0.227539)"/>
</clipPath>
</defs>
</svg>
