<svg width="64" height="54" viewBox="0 0 64 54" fill="none" xmlns="http://www.w3.org/2000/svg">
<g clip-path="url(#clip0_6197_16022)">
<g clip-path="url(#clip1_6197_16022)">
<path fill-rule="evenodd" clip-rule="evenodd" d="M60.7482 17.5789V5.30471C60.7482 4.06964 60.2488 2.88476 59.3583 2.01065C58.4684 1.13733 57.2612 0.646484 56.0019 0.646484C45.4396 0.646484 15.4178 0.646484 4.85546 0.646484C2.23395 0.646484 0.109314 2.73177 0.109314 5.30471V43.855C0.109314 46.4272 2.23395 48.5132 4.85546 48.5132H29.3051C29.8653 48.5132 30.32 48.067 30.32 47.5172C30.32 46.9673 29.8653 46.5212 29.3051 46.5212C29.3051 46.5212 12.7265 46.5212 4.85546 46.5212C3.35514 46.5212 2.13897 45.3275 2.13897 43.855V5.30471C2.13897 3.83218 3.35514 2.63854 4.85546 2.63854H56.0019C56.7229 2.63854 57.4138 2.91903 57.9228 3.41943C58.4327 3.91983 58.7185 4.59793 58.7185 5.30471V17.5789C58.7185 18.1288 59.1739 18.575 59.7333 18.575C60.2934 18.575 60.7482 18.1288 60.7482 17.5789Z" fill="#808080"/>
<path fill-rule="evenodd" clip-rule="evenodd" d="M50.2558 48.5131H56.0017C57.2609 48.5131 58.4682 48.0223 59.358 47.1482C60.2477 46.2749 60.7479 45.0901 60.7479 43.8549V40.6438C60.7479 40.0939 60.2932 39.6477 59.7331 39.6477C59.1737 39.6477 58.7183 40.0939 58.7183 40.6438V43.8549C58.7183 44.5618 58.4325 45.2398 57.9226 45.7402C57.4136 46.2399 56.7227 46.5211 56.0017 46.5211H51.532C50.7397 46.5211 49.6956 48.5131 50.2558 48.5131Z" fill="#808080"/>
<path fill-rule="evenodd" clip-rule="evenodd" d="M41.9263 22.3073L25.5477 12.8028C24.7164 12.3207 23.6854 12.3127 22.8459 12.782C22.0073 13.2522 21.4893 14.127 21.4893 15.0753V34.0835C21.4893 35.0317 22.0073 35.9074 22.8459 36.3768C23.6854 36.8469 24.7164 36.8389 25.5477 36.3561C29.6843 33.956 37.8483 29.2189 41.9263 26.8524C42.7455 26.3767 43.2472 25.5129 43.2472 24.5798C43.2472 23.6459 42.7455 22.7822 41.9263 22.3073ZM40.8936 24.022C41.0941 24.1384 41.2176 24.3503 41.2176 24.5798C41.2176 24.8085 41.0941 25.0205 40.8936 25.1376L24.5151 34.6413C24.3105 34.76 24.058 34.7616 23.8518 34.6468C23.6464 34.5313 23.5189 34.3162 23.5189 34.0835V15.0753C23.5189 14.8427 23.6464 14.6283 23.8518 14.5127C24.058 14.3972 24.3105 14.3996 24.5151 14.5175L40.8936 24.022Z" fill="#808080"/>
<path d="M42.3058 23.8966L24.2215 13.543L22.2122 14.036V34.7434L24.7239 35.7295L40.7988 26.3619L42.3058 23.8966Z" fill="#808080"/>
<path fill-rule="evenodd" clip-rule="evenodd" d="M62.4556 30.9884L62.4564 30.9876C63.7676 29.5796 63.55 27.9781 62.8136 26.429C62.0733 24.8713 60.7361 23.5629 59.3023 23.0186C57.6478 22.3899 56.0971 22.1286 54.6812 23.4306L54.6804 23.4314C47.2965 30.2395 42.6323 34.8419 35.0366 42.7838C34.6128 43.2269 34.2978 43.7543 34.12 44.3121C33.7603 45.4381 32.7154 49.4876 32.2714 51.2214C32.1415 51.7266 32.2933 52.2644 32.6716 52.6334C33.05 53.0015 33.5988 53.1465 34.1151 53.0143C35.881 52.5657 40.0182 51.5043 41.1402 51.1505C41.6776 50.9807 42.1858 50.6915 42.6202 50.3058C50.665 43.1392 55.4289 38.5161 62.4556 30.9884ZM34.4561 50.8692C34.9513 48.9401 35.7518 45.8604 36.0563 44.909C36.1456 44.6301 36.3047 44.3687 36.5166 44.1472C44.0767 36.2419 48.7197 31.6602 56.0694 24.884C56.8326 24.1828 57.6786 24.5374 58.57 24.876C59.5645 25.2537 60.4608 26.1908 60.9739 27.2713C61.3563 28.0753 61.638 28.9128 60.9585 29.6434C53.9789 37.12 49.2466 41.7113 41.2563 48.8302C41.0395 49.0229 40.7878 49.1696 40.5191 49.2541C39.5692 49.5536 36.424 50.3664 34.4561 50.8692Z" fill="#808080"/>
<path fill-rule="evenodd" clip-rule="evenodd" d="M39.099 50.0105C39.3523 48.8734 36.3183 45.9324 35.1988 46.3603C34.7734 47.8647 34.3894 49.2552 34.1442 50.3006C34.0947 50.5165 34.1701 50.7404 34.3455 50.895C34.52 51.0504 34.7709 51.1157 35.0112 51.0695C36.2087 50.8353 37.5305 50.4511 39.099 50.0105Z" fill="#808080"/>
<path fill-rule="evenodd" clip-rule="evenodd" d="M52.6596 26.6316L56.6155 30.5028C57.0217 30.9004 57.6783 30.8972 58.0812 30.4962C58.4832 30.0953 58.4807 29.4472 58.0745 29.0504L54.1186 25.1792C53.7123 24.7815 53.0559 24.784 52.6529 25.1849C52.25 25.5859 52.2534 26.2339 52.6596 26.6316Z" fill="#808080"/>
</g>
</g>
<defs>
<clipPath id="clip0_6197_16022">
<rect width="63.2949" height="52.4161" fill="white" transform="translate(0.109314 0.646484)"/>
</clipPath>
<clipPath id="clip1_6197_16022">
<rect width="63.2949" height="52.4161" fill="white" transform="translate(0.109314 0.646484)"/>
</clipPath>
</defs>
</svg>
