<svg width="64" height="64" viewBox="0 0 64 64" fill="none" xmlns="http://www.w3.org/2000/svg">
<g clip-path="url(#clip0_6197_15948)">
<g clip-path="url(#clip1_6197_15948)">
<path d="M32.5371 40.3147C32.163 39.7587 31.317 39.7587 30.9429 40.3147L23.9804 50.6609C23.8338 50.8789 23.7906 51.1466 23.8616 51.3971L25.6951 57.8616L24.4895 62.499C24.3395 63.0751 24.7929 63.6333 25.4105 63.6333H38.0695C38.6872 63.6333 39.1403 63.0751 38.9905 62.499L37.7848 57.8616L39.6183 51.3971C39.6894 51.1467 39.6462 50.879 39.4995 50.6609L32.5371 40.3147ZM26.6265 61.8075L27.4176 58.7645H36.0622L36.8534 61.8075H26.6265Z" fill="#808080"/>
<path d="M0.0925293 63.6335C0.0925297 59.4775 0.911115 55.3622 2.50155 51.5225C4.09198 47.6829 6.42311 44.1941 9.36185 41.2554C12.3006 38.3167 15.7894 35.9855 19.629 34.395C23.4687 32.8047 27.584 31.9861 31.74 31.9861C35.896 31.9861 40.0113 32.8047 43.8509 34.395C47.6906 35.9855 51.1793 38.3167 54.1181 41.2554C57.0568 44.1941 59.3879 47.6829 60.9783 51.5225C62.5688 55.3622 63.3874 59.4775 63.3874 63.6335H59.5897C59.5897 59.9763 58.8693 56.3547 57.4697 52.9758C56.0702 49.597 54.0188 46.5269 51.4327 43.9408C48.8466 41.3547 45.7765 39.3033 42.3976 37.9037C39.0187 36.5041 35.3972 35.7838 31.74 35.7838C28.0827 35.7838 24.4612 36.5041 21.0823 37.9037C17.7034 39.3033 14.6333 41.3546 12.0472 43.9407C9.46114 46.5268 7.40974 49.597 6.01015 52.9758C4.61058 56.3547 3.89022 59.9763 3.89022 63.6335H0.0925293Z" fill="#808080"/>
<path d="M63.3872 31.5238C59.2485 31.6163 55.1323 30.8895 51.2735 29.3848C47.4146 27.8802 43.8888 25.6273 40.8972 22.7546C37.9055 19.882 35.5068 16.446 33.838 12.6426C32.1691 8.8393 31.2627 4.74322 31.1707 0.588252L36.1212 0.477661C36.1988 3.97995 36.9628 7.43261 38.3696 10.6385C39.7763 13.8443 41.7982 16.7407 44.3198 19.1621C46.8415 21.5834 49.8135 23.4825 53.0661 24.7507C56.3189 26.019 59.7885 26.6317 63.2771 26.5538L63.3872 31.5238Z" fill="#808080"/>
<path d="M22.8394 13.1954C22.8394 18.6573 18.4115 23.0852 12.9495 23.0852C7.48751 23.0852 3.05969 18.6573 3.05969 13.1954C3.05969 7.73336 7.48751 3.30554 12.9495 3.30554C18.4115 3.30554 22.8394 7.73336 22.8394 13.1954Z" fill="#808080"/>
<path d="M61.4101 8.25042C61.4101 11.5276 58.7534 14.1843 55.4763 14.1843C52.1991 14.1843 49.5424 11.5276 49.5424 8.25042C49.5424 4.97322 52.1991 2.31653 55.4763 2.31653C58.7534 2.31653 61.4101 4.97322 61.4101 8.25042Z" fill="#808080"/>
<path fill-rule="evenodd" clip-rule="evenodd" d="M36.452 57.4333H27.0277L25.2798 51.2712H24.8537L26.6986 57.7755H36.7811L38.3995 52.0699H37.9733L36.452 57.4333ZM36.1718 47.4876L31.7399 40.9016L28.2251 46.1246L30.4156 43.5795L31.2007 44.1781L26.3433 51.3962L27.7751 56.4443H35.7045L37.1363 51.3962L32.2791 44.1781L33.0812 43.6006L36.0058 47.4018C36.0615 47.4272 36.1169 47.4559 36.1718 47.4876ZM32.1948 51.157C32.1948 50.9448 32.0088 50.7385 31.7399 50.7385V49.7496C32.518 49.7496 33.1838 50.3624 33.1838 51.157H32.1948ZM39.4994 50.661L32.537 40.3148C32.1628 39.7588 31.3169 39.7588 30.9427 40.3148L23.9803 50.661C23.8336 50.879 23.7904 51.1467 23.8614 51.3972L25.695 57.8617L24.4893 62.499C24.3394 63.0752 24.7928 63.6334 25.4104 63.6334H38.0693C38.6871 63.6334 39.1402 63.0752 38.9904 62.499L37.7847 57.8617L39.6182 51.3972C39.6893 51.1468 39.6461 50.8791 39.4994 50.661ZM26.6263 61.8075H36.8533L36.0621 58.7645H27.4175L26.6263 61.8075ZM3.41525 51.901C2.00079 55.3157 1.21652 58.9557 1.09746 62.6445H2.9182C3.03657 59.1947 3.77346 55.7913 5.09645 52.5973C6.54574 49.0985 8.66998 45.9193 11.3479 43.2414C14.0258 40.5635 17.205 38.4393 20.7039 36.99C24.2027 35.5406 27.9529 34.7948 31.74 34.7948C35.5271 34.7948 39.2772 35.5406 42.776 36.99C46.2749 38.4393 49.4541 40.5635 52.132 43.2414C54.8099 45.9193 56.9342 49.0985 58.3834 52.5973C59.7065 55.7913 60.4434 59.1947 60.5617 62.6445H62.3825C62.2634 58.9557 61.4791 55.3157 60.0647 51.901C58.524 48.1813 56.2656 44.8016 53.4187 41.9547C50.5719 39.1078 47.1921 36.8495 43.4725 35.3087C39.7528 33.768 35.7661 32.975 31.74 32.975C27.7138 32.975 23.7271 33.768 20.0075 35.3087C16.2878 36.8495 12.9081 39.1077 10.0612 41.9547C7.21427 44.8016 4.95598 48.1813 3.41525 51.901ZM63.372 62.6445C63.2526 58.8257 62.4425 55.0573 60.9783 51.5225C59.3879 47.6829 57.0568 44.194 54.1181 41.2554C51.1793 38.3166 47.6906 35.9855 43.8509 34.395C40.0113 32.8046 35.896 31.986 31.74 31.986C27.584 31.986 23.4687 32.8046 19.629 34.395C15.7894 35.9855 12.3006 38.3166 9.36185 41.2554C6.42311 44.194 4.09198 47.6829 2.50155 51.5225C1.03738 55.0573 0.227374 58.8257 0.107985 62.6445C0.097689 62.9738 0.0925293 63.3035 0.0925293 63.6335H3.89022C3.89022 59.9762 4.61058 56.3547 6.01015 52.9758C7.40974 49.597 9.46114 46.5268 12.0472 43.9407C14.6333 41.3546 17.7034 39.3032 21.0823 37.9036C24.4612 36.5041 28.0827 35.7837 31.74 35.7837C35.3972 35.7837 39.0187 36.5041 42.3976 37.9036C45.7765 39.3032 48.8466 41.3547 51.4327 43.9408C54.0188 46.5269 56.0702 49.597 57.4697 52.9758C58.8693 56.3547 59.5897 59.9762 59.5897 63.6335H63.3874C63.3874 63.3035 63.3822 62.9738 63.372 62.6445ZM51.6328 28.4634C55.0628 29.8008 58.7026 30.5037 62.3764 30.5411L62.31 27.5468C59.0259 27.5018 55.7734 26.8679 52.7071 25.6722C49.333 24.3566 46.2503 22.3868 43.6349 19.8755C41.0196 17.364 38.9228 14.3603 37.464 11.0358C36.1379 8.01348 35.3626 4.77969 35.1721 1.48809L32.1974 1.55455C32.3976 5.24039 33.2594 8.8624 34.7438 12.2453C36.3606 15.9299 38.6844 19.2586 41.5823 22.0412C44.4801 24.8239 47.8954 27.0061 51.6328 28.4634ZM31.1708 0.588252C31.1709 0.59195 31.171 0.595649 31.1711 0.599347C31.1784 0.925516 31.1908 1.25132 31.2081 1.57665C31.4116 5.39178 32.3018 9.14126 33.8382 12.6426C35.507 16.446 37.9057 19.882 40.8973 22.7546C43.8889 25.6273 47.4147 27.8802 51.2736 29.3848C54.8249 30.7695 58.5942 31.4955 62.3983 31.5303C62.724 31.5333 63.0499 31.5312 63.376 31.5241C63.3799 31.524 63.3836 31.5239 63.3874 31.5238L63.2772 26.5538C63.2741 26.5539 63.271 26.554 63.2679 26.554C59.7825 26.6306 56.3161 26.0179 53.0663 24.7507C49.8136 23.4825 46.8416 21.5834 44.3199 19.1621C41.7983 16.7407 39.7764 13.8444 38.3697 10.6385C36.9643 7.43549 36.2004 3.98616 36.1215 0.487092C36.1214 0.483948 36.1214 0.480805 36.1213 0.477661L31.1708 0.588252ZM12.9492 22.0962C17.8649 22.0962 21.85 18.1111 21.85 13.1954C21.85 8.27955 17.8649 4.29452 12.9492 4.29452C8.03337 4.29452 4.04834 8.27955 4.04834 13.1954C4.04834 18.1111 8.03337 22.0962 12.9492 22.0962ZM55.4754 13.1954C58.2064 13.1954 60.4203 10.9814 60.4203 8.25045C60.4203 5.51944 58.2064 3.30554 55.4754 3.30554C52.7445 3.30554 50.5305 5.51944 50.5305 8.25045C50.5305 10.9814 52.7445 13.1954 55.4754 13.1954ZM22.839 13.1954C22.839 18.6573 18.4111 23.0852 12.9492 23.0852C7.48718 23.0852 3.05936 18.6573 3.05936 13.1954C3.05936 7.73336 7.48718 3.30554 12.9492 3.30554C18.4111 3.30554 22.839 7.73336 22.839 13.1954ZM55.4754 14.1844C58.7526 14.1844 61.4093 11.5277 61.4093 8.25045C61.4093 4.97325 58.7526 2.31656 55.4754 2.31656C52.1982 2.31656 49.5415 4.97325 49.5415 8.25045C49.5415 11.5277 52.1982 14.1844 55.4754 14.1844Z" fill="#808080"/>
</g>
</g>
<defs>
<clipPath id="clip0_6197_15948">
<rect width="63.2949" height="63.2949" fill="white" transform="translate(0.0924072 0.477661)"/>
</clipPath>
<clipPath id="clip1_6197_15948">
<rect width="63.2949" height="63.2949" fill="white" transform="translate(0.0925293 0.477661)"/>
</clipPath>
</defs>
</svg>
