<svg width="64" height="64" viewBox="0 0 64 64" fill="none" xmlns="http://www.w3.org/2000/svg">
<g clip-path="url(#clip0_6197_16044)">
<g clip-path="url(#clip1_6197_16044)">
<g clip-path="url(#clip2_6197_16044)">
<path d="M58.772 16.4702H4.70766C2.16267 16.4702 0.0924072 14.4 0.0924072 11.8549V5.26174C0.0924072 2.71675 2.16267 0.646484 4.70766 0.646484H58.772C61.317 0.646484 63.3873 2.71675 63.3873 5.26174V11.8549C63.3873 14.4 61.317 16.4702 58.772 16.4702ZM4.70766 4.60241C4.34371 4.60241 4.04834 4.89779 4.04834 5.26174V11.8549C4.04834 12.2189 4.34371 12.5143 4.70766 12.5143H58.772C59.1359 12.5143 59.4313 12.2189 59.4313 11.8549V5.26174C59.4313 4.89779 59.1359 4.60241 58.772 4.60241H4.70766Z" fill="#808080"/>
<path d="M58.7722 63.9412H25.8062C23.2613 63.9412 21.1909 61.871 21.1909 59.326V26.3599C21.1909 23.815 23.2613 21.7446 25.8062 21.7446H58.7722C61.3173 21.7446 63.3875 23.815 63.3875 26.3599V59.326C63.3875 61.871 61.3173 63.9412 58.7722 63.9412ZM25.8062 25.7006C25.4423 25.7006 25.1468 25.996 25.1468 26.3599V59.326C25.1468 59.6899 25.4423 59.9853 25.8062 59.9853H58.7722C59.1362 59.9853 59.4316 59.6899 59.4316 59.326V26.3599C59.4316 25.996 59.1362 25.7006 58.7722 25.7006H25.8062Z" fill="#808080"/>
<path d="M52.3857 42.8756L47.3377 37.8275C47.1806 37.6705 46.9029 37.6705 46.746 37.8275L45.6515 38.9219C45.4881 39.0854 45.4881 39.3503 45.6515 39.5138L49.3094 43.1713L45.6518 46.8294C45.4883 46.9929 45.4883 47.2578 45.6518 47.4213L46.7462 48.5157C46.8246 48.5943 46.9312 48.6387 47.0421 48.6387C47.1528 48.6387 47.2595 48.5943 47.3381 48.5157L52.3857 43.4679C52.5492 43.3042 52.5492 43.039 52.3857 42.8756Z" fill="#808080"/>
<path d="M39.586 46.8295L35.9286 43.1718L39.5866 39.5143C39.6651 39.4357 39.7092 39.3294 39.7092 39.2184C39.7092 39.1074 39.6653 39.0009 39.5866 38.9224L38.4922 37.828C38.4136 37.7494 38.3071 37.7053 38.1962 37.7053C38.0853 37.7053 37.9787 37.7494 37.9003 37.828L32.8519 42.8756C32.6885 43.0391 32.6885 43.304 32.8519 43.4677L37.9001 48.5156C37.9785 48.5941 38.0851 48.6385 38.196 48.6385C38.3069 48.6385 38.4134 48.5941 38.492 48.5156L39.5864 47.4212C39.7499 47.2579 39.7499 46.993 39.586 46.8295Z" fill="#808080"/>
<path d="M45.4895 36.1295C45.4364 36.0319 45.3468 35.9595 45.2405 35.9281L44.3532 35.6662C44.1318 35.6006 43.8986 35.7276 43.8333 35.9493L39.7145 49.8976C39.6831 50.0041 39.6952 50.1186 39.7483 50.2159C39.8012 50.3136 39.891 50.3858 39.9973 50.4175L40.8845 50.6794C40.9241 50.691 40.964 50.6967 41.0032 50.6967C41.1838 50.6967 41.3506 50.5787 41.4044 50.3963L45.5232 36.4478C45.5546 36.3413 45.5427 36.2268 45.4895 36.1295Z" fill="#808080"/>
<path d="M8.00426 63.9411C3.64219 63.9411 0.0924072 60.3914 0.0924072 56.0293C0.0924072 51.6672 3.64219 48.1174 8.00426 48.1174C12.3664 48.1174 15.9161 51.6672 15.9161 56.0293C15.9161 60.3914 12.3664 63.9411 8.00426 63.9411ZM8.00426 52.0734C5.82323 52.0734 4.04834 53.8483 4.04834 56.0293C4.04834 58.2103 5.82323 59.9852 8.00426 59.9852C10.1853 59.9852 11.9602 58.2103 11.9602 56.0293C11.9602 53.8483 10.1853 52.0734 8.00426 52.0734Z" fill="#808080"/>
<path d="M13.9382 34.9313H2.07037C0.978535 34.9313 0.0924072 34.0451 0.0924072 32.9533C0.0924072 31.8615 0.978535 30.9753 2.07037 30.9753H13.9382C15.03 30.9753 15.9161 31.8615 15.9161 32.9533C15.9161 34.0451 15.03 34.9313 13.9382 34.9313Z" fill="#808080"/>
<path d="M13.9382 27.0192H2.07037C0.978535 27.0192 0.0924072 26.133 0.0924072 25.0412C0.0924072 23.9494 0.978535 23.0632 2.07037 23.0632H13.9382C15.03 23.0632 15.9161 23.9494 15.9161 25.0412C15.9161 26.133 15.03 27.0192 13.9382 27.0192Z" fill="#808080"/>
<path d="M13.9382 42.8429H2.07037C0.978535 42.8429 0.0924072 41.9568 0.0924072 40.8649C0.0924072 39.7731 0.978535 38.887 2.07037 38.887H13.9382C15.03 38.887 15.9161 39.7731 15.9161 40.8649C15.9161 41.9568 15.03 42.8429 13.9382 42.8429Z" fill="#808080"/>
</g>
</g>
</g>
<defs>
<clipPath id="clip0_6197_16044">
<rect width="63.2949" height="63.2949" fill="white" transform="translate(0.0921631 0.646484)"/>
</clipPath>
<clipPath id="clip1_6197_16044">
<rect width="63.2949" height="63.2949" fill="white" transform="translate(0.0922852 0.646484)"/>
</clipPath>
<clipPath id="clip2_6197_16044">
<rect width="63.2949" height="63.2949" fill="white" transform="translate(0.0924072 0.646484)"/>
</clipPath>
</defs>
</svg>
