<svg width="815" height="338" viewBox="0 0 815 338" fill="none" xmlns="http://www.w3.org/2000/svg">
<path d="M134.293 324.131C114.026 324.131 95.9234 320.638 79.9853 313.653C64.1457 306.668 51.6018 296.977 42.3539 284.581C33.2042 272.086 28.2851 257.624 27.5964 241.194H73.9348C74.5251 250.147 77.5258 257.919 82.9368 264.511C88.4463 271.004 95.6282 276.022 104.483 279.563C113.337 283.105 123.175 284.876 133.998 284.876C145.902 284.876 156.429 282.81 165.578 278.678C174.826 274.546 182.058 268.79 187.272 261.412C192.486 253.935 195.093 245.326 195.093 235.586C195.093 225.453 192.486 216.549 187.272 208.875C182.156 201.103 174.63 195.003 164.693 190.576C154.855 186.149 142.95 183.935 128.98 183.935H103.45V146.746H128.98C140.196 146.746 150.034 144.73 158.495 140.696C167.054 136.662 173.744 131.054 178.565 123.872C183.386 116.592 185.796 108.082 185.796 98.342C185.796 88.9957 183.681 80.8791 179.45 73.9923C175.318 67.0071 169.415 61.5468 161.742 57.6115C154.166 53.6762 145.213 51.7085 134.883 51.7085C125.045 51.7085 115.846 53.5286 107.287 57.1688C98.8257 60.7106 91.9388 65.8265 86.6262 72.5165C81.3135 79.1082 78.4604 87.028 78.0669 96.276H33.9421C34.434 79.9444 39.2548 65.5805 48.4044 53.1843C57.6524 40.788 69.8519 31.0973 85.0029 24.1121C100.154 17.1269 116.977 13.6343 135.473 13.6343C154.855 13.6343 171.58 17.4221 185.649 24.9976C199.816 32.4747 210.736 42.4605 218.41 54.9552C226.182 67.4498 230.019 81.125 229.921 95.9809C230.019 112.903 225.297 127.267 215.754 139.073C206.309 150.879 193.716 158.798 177.975 162.832V165.193C198.045 168.243 213.589 176.212 224.608 189.1C235.726 201.988 241.235 217.976 241.137 237.062C241.235 253.689 236.611 268.594 227.265 281.777C218.017 294.96 205.374 305.34 189.338 312.915C173.302 320.392 154.953 324.131 134.293 324.131ZM402.14 325.016C378.823 324.918 358.901 318.769 342.373 306.57C325.844 294.37 313.202 276.612 304.446 253.295C295.69 229.978 291.312 201.89 291.312 169.03C291.312 136.269 295.69 108.279 304.446 85.0603C313.3 61.842 325.992 44.133 342.52 31.9336C359.147 19.7341 379.02 13.6343 402.14 13.6343C425.26 13.6343 445.084 19.7833 461.613 32.0811C478.141 44.2806 490.783 61.9895 499.539 85.2079C508.394 108.328 512.821 136.269 512.821 169.03C512.821 201.988 508.443 230.126 499.687 253.443C490.931 276.661 478.289 294.419 461.76 306.717C445.232 318.917 425.359 325.016 402.14 325.016ZM402.14 285.614C422.604 285.614 438.591 275.628 450.102 255.656C461.711 235.685 467.516 206.809 467.516 169.03C467.516 143.943 464.859 122.741 459.547 105.426C454.332 88.0118 446.806 74.8285 436.968 65.8757C427.228 56.8244 415.619 52.2988 402.14 52.2988C381.775 52.2988 365.788 62.3339 354.179 82.404C342.569 102.474 336.716 131.35 336.617 169.03C336.617 194.216 339.224 215.516 344.439 232.93C349.751 250.245 357.278 263.379 367.018 272.332C376.757 281.187 388.465 285.614 402.14 285.614ZM670.394 325.016C647.077 324.918 627.154 318.769 610.626 306.57C594.098 294.37 581.455 276.612 572.699 253.295C563.943 229.978 559.565 201.89 559.565 169.03C559.565 136.269 563.943 108.279 572.699 85.0603C581.554 61.842 594.245 44.133 610.774 31.9336C627.4 19.7341 647.274 13.6343 670.394 13.6343C693.514 13.6343 713.338 19.7833 729.866 32.0811C746.394 44.2806 759.037 61.9895 767.793 85.2079C776.647 108.328 781.074 136.269 781.074 169.03C781.074 201.988 776.696 230.126 767.94 253.443C759.184 276.661 746.542 294.419 730.014 306.717C713.485 318.917 693.612 325.016 670.394 325.016ZM670.394 285.614C690.857 285.614 706.844 275.628 718.355 255.656C729.964 235.685 735.769 206.809 735.769 169.03C735.769 143.943 733.113 122.741 727.8 105.426C722.586 88.0118 715.059 74.8285 705.221 65.8757C695.481 56.8244 683.872 52.2988 670.394 52.2988C650.028 52.2988 634.041 62.3339 622.432 82.404C610.823 102.474 604.969 131.35 604.871 169.03C604.871 194.216 607.478 215.516 612.692 232.93C618.005 250.245 625.531 263.379 635.271 272.332C645.011 281.187 656.718 285.614 670.394 285.614Z" fill="#181A14"/>
<rect x="693.73" y="89.1206" width="115.866" height="115.866" rx="57.9329" fill="#0C0F06"/>
<rect x="693.73" y="89.1206" width="115.866" height="115.866" rx="57.9329" stroke="#F8F8F8" stroke-width="10.5332"/>
<g clip-path="url(#clip0_1_967)">
<g clip-path="url(#clip1_1_967)">
<g clip-path="url(#clip2_1_967)">
<path d="M772.729 143.998V149.305H754.551V168.12H748.775V149.305H730.596V143.998H748.775V125.987H754.551V143.998H772.729Z" fill="white"/>
</g>
</g>
</g>
<defs>
<clipPath id="clip0_1_967">
<rect width="42.133" height="42.133" fill="white" transform="translate(730.596 125.987)"/>
</clipPath>
<clipPath id="clip1_1_967">
<rect width="42.133" height="42.133" fill="white" transform="translate(730.596 125.987)"/>
</clipPath>
<clipPath id="clip2_1_967">
<rect width="42.133" height="42.133" fill="white" transform="translate(730.596 125.987)"/>
</clipPath>
</defs>
</svg>
