<svg width="24" height="15" viewBox="0 0 24 15" fill="none" xmlns="http://www.w3.org/2000/svg">
<g clip-path="url(#clip0_6197_16659)">
<path fill-rule="evenodd" clip-rule="evenodd" d="M23.9941 6.64864V8.31288H5.54724C5.61332 8.36407 5.67891 8.41669 5.74394 8.47077C7.15156 9.64129 8.26997 11.478 8.26997 14.1641V14.8344H6.67865V14.1641C6.67865 12.0342 5.8182 10.6601 4.75227 9.7737C3.65685 8.8628 2.32646 8.45794 1.46055 8.37013L0.820929 8.30527L0.909181 7.58914V7.33319L0.820923 6.61707L1.46055 6.5522C2.32645 6.46438 3.65684 6.05952 4.75227 5.14862C5.8182 4.26224 6.67865 2.88815 6.67865 0.758188V0.0878907L8.26997 0.0878906V0.758188C8.26997 3.44435 7.15157 5.28104 5.74394 6.45156C5.66219 6.51953 5.57956 6.58521 5.49621 6.64864H23.9941Z" fill="#808080"/>
</g>
<defs>
<clipPath id="clip0_6197_16659">
<rect width="23.1731" height="14.7465" fill="white" transform="translate(0.820984 0.0878906)"/>
</clipPath>
</defs>
</svg>
