<svg width="179" height="35" viewBox="0 0 179 35" fill="none" xmlns="http://www.w3.org/2000/svg">
<g clip-path="url(#clip0_6197_16423)">
<g clip-path="url(#clip1_6197_16423)">
<g clip-path="url(#clip2_6197_16423)">
<mask id="mask0_6197_16423" style="mask-type:luminance" maskUnits="userSpaceOnUse" x="0" y="0" width="179" height="35">
<path d="M178.603 0.49707H0.591446V34.2035H178.603V0.49707Z" fill="white"/>
</mask>
<g mask="url(#mask0_6197_16423)">
<path d="M103.695 25.375H107.624V10.5538H103.695V25.375ZM103.695 8.2425H107.624V4.71777H103.695V8.2425Z" fill="#0C0F06" fill-opacity="0.3"/>
<path d="M110.156 30.2288H114.086V23.6994H114.143C114.981 24.9706 116.339 25.8085 118.419 25.8085C122.233 25.8085 124.833 22.7749 124.833 17.979C124.833 13.3563 122.32 10.1494 118.39 10.1494C116.368 10.1494 114.981 11.1029 114.028 12.4029H113.941V10.5539H110.156V30.2288ZM117.581 22.5437C115.242 22.5437 113.999 20.7814 113.999 18.0945C113.999 15.4365 114.981 13.3275 117.437 13.3275C119.864 13.3275 120.846 15.2921 120.846 18.0945C120.846 20.8969 119.575 22.5437 117.581 22.5437Z" fill="#0C0F06" fill-opacity="0.3"/>
<path d="M132.671 25.8085C136.369 25.8085 138.912 24.0172 138.912 21.0414C138.912 17.5746 136.167 16.881 133.682 16.3611C131.572 15.9277 129.609 15.8121 129.609 14.541C129.609 13.472 130.62 12.8941 132.151 12.8941C133.826 12.8941 134.838 13.472 135.01 15.0609H138.564C138.276 12.0852 136.109 10.1494 132.208 10.1494C128.828 10.1494 126.171 11.6807 126.171 14.8876C126.171 18.1234 128.77 18.8457 131.429 19.3657C133.451 19.7702 135.328 19.9146 135.328 21.3303C135.328 22.3704 134.347 23.035 132.613 23.035C130.851 23.035 129.637 22.2838 129.377 20.5792H125.737C125.969 23.7283 128.366 25.8085 132.671 25.8085Z" fill="#0C0F06" fill-opacity="0.3"/>
<path d="M153.829 25.3749V10.5537H149.9V19.1055C149.9 21.0701 148.773 22.4569 146.924 22.4569C145.249 22.4569 144.469 21.5034 144.469 19.7701V10.5537H140.568V20.4345C140.568 23.6703 142.417 25.7794 145.711 25.7794C147.791 25.7794 148.947 24.9993 149.958 23.6415H150.044V25.3749H153.829Z" fill="#0C0F06" fill-opacity="0.3"/>
<path d="M156.371 25.3751H160.3V16.7656C160.3 14.8009 161.369 13.5298 162.958 13.5298C164.402 13.5298 165.241 14.3965 165.241 16.0721V25.3751H169.17V16.7656C169.17 14.8009 170.181 13.5298 171.827 13.5298C173.272 13.5298 174.11 14.3965 174.11 16.0721V25.3751H178.04V15.4077C178.04 12.1718 176.276 10.1494 173.156 10.1494C171.278 10.1494 169.718 11.1317 168.707 12.7496H168.649C167.928 11.1895 166.425 10.1494 164.547 10.1494C162.496 10.1494 161.052 11.1895 160.243 12.5474H160.155V10.5539H156.371V25.3751Z" fill="#0C0F06" fill-opacity="0.3"/>
<path d="M1.28578 25.375H5.21498V4.71777H1.28578V25.375Z" fill="#0C0F06" fill-opacity="0.3"/>
<path d="M14.8223 25.8085C19.4159 25.8085 22.565 22.3993 22.565 17.979C22.565 13.5585 19.4159 10.1494 14.8223 10.1494C10.2285 10.1494 7.07939 13.5585 7.07939 17.979C7.07939 22.3993 10.2285 25.8085 14.8223 25.8085ZM14.8223 22.8038C12.3954 22.8038 11.0664 20.8681 11.0664 17.979C11.0664 15.0899 12.3954 13.1253 14.8223 13.1253C17.2203 13.1253 18.5781 15.0899 18.5781 17.979C18.5781 20.8681 17.2203 22.8038 14.8223 22.8038Z" fill="#0C0F06" fill-opacity="0.3"/>
<path d="M30.9212 30.431C33.1169 30.431 35.0238 29.9111 36.2659 28.7554C37.3639 27.7442 38.0284 26.3285 38.0284 24.2484V10.5539H34.2437V12.1141H34.1858C33.2902 10.8717 31.9324 10.1494 30.0834 10.1494C26.3275 10.1494 23.6694 12.9808 23.6694 17.4011C23.6694 21.8793 26.9053 24.4794 30.1989 24.4794C32.0768 24.4794 33.2036 23.7283 34.0703 22.746H34.157V24.3639C34.157 26.3862 33.088 27.4553 30.8633 27.4553C29.0432 27.4553 28.2054 26.733 27.8876 25.8085H23.9872C24.3917 28.6977 26.8764 30.431 30.9212 30.431ZM30.8633 21.3303C28.841 21.3303 27.512 19.8569 27.512 17.3433C27.512 14.8587 28.841 13.2986 30.8345 13.2986C33.2036 13.2986 34.3592 15.1477 34.3592 17.3145C34.3592 19.5101 33.348 21.3303 30.8633 21.3303Z" fill="#0C0F06" fill-opacity="0.3"/>
<path d="M47.5793 25.8085C52.173 25.8085 55.3222 22.3993 55.3222 17.979C55.3222 13.5585 52.173 10.1494 47.5793 10.1494C42.9857 10.1494 39.8364 13.5585 39.8364 17.979C39.8364 22.3993 42.9857 25.8085 47.5793 25.8085ZM47.5793 22.8038C45.1524 22.8038 43.8235 20.8681 43.8235 17.979C43.8235 15.0899 45.1524 13.1253 47.5793 13.1253C49.9772 13.1253 51.3351 15.0899 51.3351 17.979C51.3351 20.8681 49.9772 22.8038 47.5793 22.8038Z" fill="#0C0F06" fill-opacity="0.3"/>
<path fill-rule="evenodd" clip-rule="evenodd" d="M79.1506 0.49707C88.458 0.49707 96.004 8.04251 96.004 17.3503C96.004 26.6581 88.458 34.2035 79.1506 34.2035C69.8428 34.2035 62.2975 26.6581 62.2975 17.3503C62.2975 8.04251 69.8428 0.49707 79.1506 0.49707ZM78.5414 1.75818C76.6188 2.02876 74.788 3.57368 73.3668 6.15755C72.9546 6.90703 72.5826 7.73506 72.2585 8.6291C74.191 8.14351 76.3137 7.85722 78.5414 7.81294V1.75818ZM70.8341 9.03389C71.2372 7.76887 71.7303 6.605 72.2994 5.57043C73.0039 4.28953 73.8399 3.18343 74.7819 2.33388C69.6595 3.82155 65.6219 7.85921 64.1341 12.9817C64.9838 12.0396 66.0898 11.2036 67.3707 10.4991C68.4054 9.93006 69.5692 9.43693 70.8341 9.03389ZM70.4294 10.4582C69.9437 12.3906 69.6576 14.5133 69.6132 16.7411H63.5585C63.829 14.8184 65.374 12.9876 67.9579 11.5666C68.7074 11.1544 69.5354 10.7824 70.4294 10.4582ZM70.8318 16.7411C70.8821 14.3099 71.2322 12.0275 71.8112 10.0109C73.8279 9.43179 76.1103 9.08175 78.5414 9.03144V11.6629C77.6345 13.9849 75.7846 15.8345 73.4627 16.7411H70.8318ZM69.6132 17.9594H63.5585C63.829 19.8821 65.374 21.7128 67.9579 23.134C68.7074 23.5461 69.5354 23.9182 70.4294 24.2423C69.9437 22.3099 69.6576 20.1872 69.6132 17.9594ZM71.8112 24.6896C71.2322 22.673 70.8821 20.3906 70.8318 17.9594H73.4627C75.7846 18.866 77.6345 20.7156 78.5414 23.0376V25.6691C76.1103 25.6188 73.8279 25.2687 71.8112 24.6896ZM70.8341 25.6667C69.5692 25.2636 68.4054 24.7705 67.3707 24.2014C66.0898 23.4969 64.9838 22.6609 64.1341 21.7188C65.6219 26.8414 69.6595 30.879 74.7819 32.3667C73.8399 31.5171 73.0039 30.411 72.2994 29.13C71.7303 28.0955 71.2372 26.9316 70.8341 25.6667ZM78.5414 32.9423C76.6188 32.6717 74.788 31.1268 73.3668 28.543C72.9546 27.7936 72.5826 26.9654 72.2585 26.0715C74.191 26.557 76.3137 26.8434 78.5414 26.8876V32.9423ZM83.5192 32.3667C84.4612 31.5171 85.2972 30.411 86.0017 29.13C86.5705 28.0955 87.0643 26.9316 87.4671 25.6667C88.7319 25.2636 89.8956 24.7705 90.9304 24.2014C92.2112 23.4969 93.3177 22.6609 94.1671 21.7188C92.6789 26.8414 88.6417 30.879 83.5192 32.3667ZM86.043 26.0715C85.7185 26.9654 85.3461 27.7936 84.934 28.543C83.5131 31.1268 81.6824 32.6717 79.7597 32.9423V26.8876C81.9875 26.8434 84.1101 26.557 86.043 26.0715ZM87.8715 24.2423C88.7656 23.9182 89.5939 23.5461 90.3431 23.134C92.9275 21.7129 94.4721 19.8821 94.7426 17.9594H88.6881C88.6434 20.1872 88.3569 22.3099 87.8715 24.2423ZM87.4696 17.9594C87.419 20.3906 87.0693 22.673 86.4896 24.6896C84.4732 25.2687 82.1909 25.6188 79.7597 25.6691V23.0395C80.6664 20.7168 82.5166 18.8663 84.8391 17.9594H87.4696ZM88.6881 16.7411H94.7426C94.4721 14.8184 92.9275 12.9876 90.3431 11.5666C89.5939 11.1544 88.7656 10.7824 87.8715 10.4582C88.3569 12.3906 88.6434 14.5133 88.6881 16.7411ZM86.4896 10.0109C87.0693 12.0275 87.419 14.3099 87.4696 16.7411H84.8392C82.5167 15.8342 80.6664 13.9837 79.7597 11.661V9.03144C82.1909 9.08175 84.4732 9.43179 86.4896 10.0109ZM87.4671 9.03389C88.7319 9.43693 89.8956 9.93006 90.9304 10.4991C92.2112 11.2036 93.3177 12.0396 94.1671 12.9817C92.6789 7.85921 88.6417 3.82155 83.5192 2.33388C84.4612 3.18343 85.2972 4.28953 86.0017 5.57043C86.5705 6.605 87.0643 7.76887 87.4671 9.03389ZM79.7597 1.75818C81.6824 2.02876 83.5131 3.57368 84.934 6.15755C85.3461 6.90705 85.7185 7.73506 86.043 8.6291C84.1101 8.14351 81.9875 7.85722 79.7597 7.81294V1.75818Z" fill="#0C0F06" fill-opacity="0.3"/>
</g>
</g>
</g>
</g>
<defs>
<clipPath id="clip0_6197_16423">
<rect width="178.012" height="33.7064" fill="white" transform="translate(0.591064 0.49707)"/>
</clipPath>
<clipPath id="clip1_6197_16423">
<rect width="178.012" height="33.7064" fill="white" transform="translate(0.591248 0.49707)"/>
</clipPath>
<clipPath id="clip2_6197_16423">
<rect width="178.012" height="33.7064" fill="white" transform="translate(0.590927 0.49707)"/>
</clipPath>
</defs>
</svg>
