<svg width="159" height="35" viewBox="0 0 159 35" fill="none" xmlns="http://www.w3.org/2000/svg">
<g clip-path="url(#clip0_6197_16460)">
<g clip-path="url(#clip1_6197_16460)">
<mask id="mask0_6197_16460" style="mask-type:luminance" maskUnits="userSpaceOnUse" x="0" y="0" width="159" height="35">
<path d="M158.678 0.49707H0.679016V34.2035H158.678V0.49707Z" fill="white"/>
</mask>
<g mask="url(#mask0_6197_16460)">
<path fill-rule="evenodd" clip-rule="evenodd" d="M17.9494 3.81815L20.1715 -0.0302734L26.4713 3.60749L24.25 7.45507C23.8599 8.13004 24.4438 8.95079 25.209 8.80333L29.4661 7.98174L30.8438 15.125L26.5867 15.9457C19.7005 17.2737 14.4431 9.89205 17.9494 3.81815Z" fill="#0C0F06" fill-opacity="0.3"/>
<path fill-rule="evenodd" clip-rule="evenodd" d="M14.1003 29.8281L11.8782 33.6766L5.57759 30.0396L7.79968 26.1912C8.18984 25.5162 7.60587 24.6955 6.83989 24.843L2.58362 25.6637L1.20587 18.5213L5.46299 17.7006C12.3492 16.3725 17.6057 23.7542 14.1003 29.8281Z" fill="#0C0F06" fill-opacity="0.3"/>
<path fill-rule="evenodd" clip-rule="evenodd" d="M14.292 3.81815L12.0707 -0.0302734L5.77016 3.60749L7.99226 7.45507C8.38157 8.13004 7.79844 8.95079 7.03247 8.80333L2.77535 7.98174L1.39929 15.125L5.65556 15.9457C12.5426 17.2737 17.7991 9.89205 14.292 3.81815Z" fill="#0C0F06" fill-opacity="0.3"/>
<path fill-rule="evenodd" clip-rule="evenodd" d="M17.7638 29.8281L19.9842 33.6766L26.2847 30.0396L24.0627 26.1912C23.6733 25.5162 24.2565 24.6955 25.0224 24.843L29.2787 25.6637L30.6565 18.5213L26.3994 17.7006C19.5131 16.3725 14.2566 23.7542 17.7621 29.8281H17.7638Z" fill="#0C0F06" fill-opacity="0.3"/>
<path d="M138.656 25.3775V18.2149C138.656 17.2222 138.884 16.3315 139.341 15.5437C139.813 14.7398 140.483 14.1094 141.351 13.6519C142.218 13.1952 143.25 12.9668 144.448 12.9668C145.006 12.9613 145.563 13.0328 146.103 13.1792C146.607 13.3056 147.064 13.4867 147.473 13.7227C147.899 13.9434 148.261 14.2114 148.561 14.5266H148.608C148.93 14.2069 149.296 13.9361 149.696 13.7227C150.135 13.481 150.603 13.2983 151.091 13.1792C151.639 13.0339 152.203 12.9625 152.769 12.9668C153.967 12.9668 154.999 13.1943 155.866 13.6519C156.733 14.1094 157.403 14.7389 157.876 15.5437C158.349 16.3315 158.585 17.2214 158.585 18.2149V25.3775H154.897V18.3329C154.897 17.9393 154.795 17.5846 154.589 17.2694C154.402 16.9398 154.133 16.6632 153.81 16.4655C153.467 16.2577 153.075 16.151 152.674 16.158C152.249 16.158 151.863 16.2608 151.517 16.4655C151.192 16.6629 150.924 16.9396 150.736 17.2694C150.546 17.5909 150.447 17.9589 150.452 18.3329V25.3775H146.788V18.3329C146.788 17.9393 146.685 17.5846 146.481 17.2694C146.289 16.935 146.011 16.6577 145.677 16.4655C145.335 16.2577 144.942 16.151 144.542 16.158C144.116 16.158 143.731 16.2608 143.384 16.4655C143.06 16.6629 142.791 16.9396 142.603 17.2694C142.413 17.591 142.315 17.959 142.32 18.3329V25.3775H138.656ZM130.641 25.6615C129.397 25.6615 128.316 25.4255 127.403 24.952C126.504 24.4632 125.811 23.8093 125.323 22.9902C124.834 22.1552 124.59 21.2324 124.59 20.2238V13.2499H128.254V20.1294C128.254 20.555 128.356 20.9493 128.561 21.3117C128.766 21.658 129.042 21.942 129.388 22.1627C129.751 22.3675 130.161 22.4703 130.618 22.4703C131.059 22.4703 131.453 22.3675 131.8 22.1627C132.162 21.942 132.446 21.658 132.651 21.3117C132.856 20.9493 132.958 20.555 132.958 20.1294V13.2499H136.623V20.2238C136.623 21.2324 136.386 22.1552 135.913 22.9902C135.44 23.8093 134.755 24.464 133.857 24.952C132.974 25.4247 131.902 25.6615 130.641 25.6615ZM112.786 25.3775V22.4703H118.626C118.784 22.4703 118.925 22.4383 119.051 22.3751C119.176 22.2967 119.28 22.1939 119.358 22.0684C119.436 21.9442 119.477 21.8009 119.477 21.6546C119.477 21.5084 119.436 21.3651 119.358 21.2409C119.284 21.1193 119.179 21.0209 119.051 20.9569C118.924 20.8778 118.776 20.8368 118.626 20.8389H116.498C115.709 20.8389 114.993 20.7125 114.347 20.4606C113.734 20.2066 113.207 19.7794 112.833 19.2311C112.471 18.664 112.29 17.9309 112.29 17.0326C112.29 16.3391 112.455 15.7088 112.786 15.1417C113.13 14.5764 113.61 14.105 114.181 13.7699C114.777 13.424 115.454 13.2445 116.143 13.2499H121.983V16.1815H116.711C116.501 16.1773 116.298 16.2537 116.143 16.3947C116.074 16.4623 116.02 16.5433 115.983 16.6327C115.946 16.7221 115.928 16.8181 115.93 16.9147C115.93 17.1354 116.002 17.3242 116.143 17.4818C116.298 17.6229 116.501 17.6992 116.711 17.695H118.791C119.674 17.695 120.43 17.8289 121.06 18.0961C121.707 18.3489 122.203 18.7584 122.55 19.3264C122.913 19.8935 123.094 20.6257 123.094 21.524C123.094 22.2335 122.913 22.8798 122.55 23.4621C122.206 24.0425 121.717 24.5235 121.131 24.8576C120.548 25.2047 119.886 25.3775 119.146 25.3775H112.786ZM104.803 12.9668C105.827 12.9668 106.734 13.132 107.521 13.4631C108.296 13.7582 108.991 14.2273 109.554 14.8341C110.129 15.4287 110.572 16.1376 110.855 16.9147C111.154 17.7025 111.304 18.5772 111.304 19.5387C111.304 20.7361 111.052 21.8004 110.548 22.7299C110.081 23.6207 109.377 24.3651 108.515 24.8812C107.648 25.4011 106.639 25.6615 105.489 25.6615C105 25.6615 104.535 25.5983 104.093 25.4727C103.675 25.3498 103.277 25.1664 102.912 24.9284C102.568 24.6948 102.271 24.398 102.037 24.0537H101.966V30.5084H98.3017V19.5379C98.3017 18.198 98.5697 17.0394 99.1056 16.0627C99.6251 15.1015 100.414 14.3125 101.375 13.7926C102.352 13.2415 103.495 12.9668 104.803 12.9668ZM104.803 16.1344C104.236 16.1344 103.739 16.2759 103.314 16.5599C102.903 16.8279 102.588 17.2062 102.368 17.695C102.148 18.1669 102.037 18.7036 102.037 19.3019C102.037 19.901 102.148 20.437 102.368 20.9097C102.588 21.3824 102.903 21.7608 103.314 22.0448C103.739 22.3127 104.236 22.4467 104.803 22.4467C105.37 22.4467 105.859 22.3119 106.268 22.0448C106.68 21.7588 107.007 21.3665 107.215 20.9097C107.451 20.437 107.569 19.901 107.569 19.3019C107.569 18.7036 107.451 18.1677 107.215 17.695C106.994 17.2062 106.679 16.827 106.268 16.5599C105.859 16.2759 105.37 16.1344 104.803 16.1344ZM92.7334 25.3775V13.2499H96.4217V25.3775H92.7334ZM94.5771 11.8789C93.994 11.8789 93.4901 11.6666 93.0646 11.241C92.639 10.8155 92.4258 10.3108 92.4258 9.72764C92.4258 9.14452 92.639 8.64061 93.0646 8.21506C93.4901 7.77351 93.994 7.55273 94.5771 7.55273C95.1603 7.55273 95.665 7.77351 96.0906 8.21506C96.5161 8.64061 96.7284 9.14452 96.7284 9.72764C96.7284 10.3108 96.5161 10.8147 96.0906 11.241C95.665 11.6666 95.1603 11.8789 94.5771 11.8789ZM84.718 25.6615C83.4734 25.6615 82.3544 25.3859 81.3609 24.834C80.3862 24.2997 79.5706 23.5168 78.9972 22.5647C78.4301 21.6032 78.1461 20.5238 78.1461 19.3255C78.1461 18.1121 78.4301 17.0326 78.9972 16.0872C79.5706 15.1352 80.3862 14.3521 81.3609 13.8179C82.3544 13.2499 83.4734 12.9668 84.718 12.9668C85.9635 12.9668 87.0741 13.2499 88.0516 13.8179C89.0227 14.3484 89.8315 15.1328 90.3916 16.0872C90.9748 17.0326 91.2663 18.1121 91.2663 19.3255C91.2663 20.5238 90.9748 21.6032 90.3916 22.5647C89.8315 23.5191 89.0227 24.3034 88.0516 24.834C87.0589 25.3859 85.9475 25.6615 84.718 25.6615ZM84.718 22.4703C85.3011 22.4703 85.8059 22.3279 86.2314 22.0448C86.6571 21.7611 86.9996 21.3694 87.2241 20.9097C87.4609 20.437 87.5788 19.901 87.5788 19.3019C87.5788 18.7188 87.4609 18.1913 87.2241 17.7177C86.9996 17.2584 86.657 16.8669 86.2314 16.5835C85.8059 16.2995 85.3011 16.158 84.718 16.158C84.1349 16.158 83.6226 16.2995 83.1818 16.5835C82.756 16.8672 82.4131 17.2589 82.1884 17.7186C81.9476 18.2115 81.8263 18.7543 81.8344 19.3028C81.8344 19.901 81.9524 20.437 82.1884 20.9097C82.4132 21.3694 82.756 21.761 83.1818 22.0448C83.6226 22.3279 84.1349 22.4703 84.718 22.4703ZM66.2376 30.1773V27.0325H72.2888C72.5256 27.0325 72.7228 26.9541 72.8803 26.7965C72.9571 26.7287 73.0181 26.6447 73.0589 26.5506C73.0996 26.4565 73.1192 26.3547 73.1163 26.2522V23.5809H73.0455C72.7461 23.9291 72.4048 24.2387 72.0293 24.5028C71.6821 24.7556 71.2877 24.9444 70.847 25.0708C70.3779 25.2025 69.8924 25.2662 69.4052 25.2595C68.3333 25.2595 67.3719 25.0067 66.5208 24.5028C65.6857 23.9829 65.0234 23.2658 64.5346 22.3515C64.0627 21.4381 63.826 20.3974 63.826 19.2311C63.826 18.0809 64.0703 17.0326 64.5591 16.0872C65.063 15.1417 65.7961 14.385 66.7576 13.8179C67.7182 13.2499 68.8929 12.9668 70.2799 12.9668C71.6037 12.9668 72.7463 13.2424 73.7078 13.7943C74.6733 14.3183 75.4627 15.1157 75.9771 16.0863C76.513 17.0638 76.781 18.2149 76.781 19.5387V26.6305C76.781 27.7176 76.4583 28.5771 75.8119 29.2074C75.1816 29.8537 74.307 30.1764 73.1879 30.1764L66.2376 30.1773ZM70.3035 22.1863C70.8706 22.1863 71.3593 22.0599 71.7697 21.808C72.1746 21.5451 72.501 21.1777 72.7143 20.7445C72.9385 20.2887 73.0519 19.7863 73.0455 19.2783C73.0455 18.7112 72.936 18.1913 72.7152 17.7186C72.4944 17.2458 72.1792 16.8751 71.7689 16.6071C71.3593 16.3231 70.8706 16.1815 70.3026 16.1815C69.7515 16.1815 69.2628 16.3155 68.8373 16.5835C68.4277 16.8515 68.1126 17.2138 67.8918 17.6705C67.6719 18.1281 67.5615 18.6396 67.5615 19.2075C67.5615 19.7595 67.671 20.2634 67.8918 20.721C68.1126 21.1617 68.4277 21.5164 68.8381 21.7844C69.2628 22.0524 69.7515 22.1863 70.3035 22.1863ZM56.3777 25.6615C55.1331 25.6615 54.014 25.3859 53.0214 24.834C52.0464 24.2999 51.2305 23.5169 50.6569 22.5647C50.0898 21.6032 49.8058 20.5238 49.8058 19.3255C49.8058 18.1121 50.0898 17.0326 50.6569 16.0872C51.2305 15.135 52.0464 14.3519 53.0214 13.8179C54.014 13.2499 55.1331 12.9668 56.3777 12.9668C57.6231 12.9668 58.7338 13.2499 59.7113 13.8179C60.6823 14.3486 61.4912 15.1329 62.0513 16.0872C62.6344 17.0326 62.926 18.1121 62.926 19.3255C62.926 20.5238 62.6344 21.6032 62.0513 22.5647C61.4912 23.5191 60.6823 24.3034 59.7113 24.834C58.7186 25.3859 57.6071 25.6615 56.3777 25.6615ZM56.3777 22.4703C56.9608 22.4703 57.4647 22.3279 57.8911 22.0448C58.3165 21.7609 58.6591 21.3693 58.8838 20.9097C59.1197 20.437 59.2377 19.901 59.2377 19.3019C59.2377 18.7188 59.1197 18.1913 58.8838 17.7177C58.6591 17.2585 58.3165 16.8672 57.8911 16.5835C57.4656 16.2995 56.9608 16.158 56.3777 16.158C55.7946 16.158 55.2822 16.2995 54.8415 16.5835C54.4157 16.8672 54.0728 17.2589 53.848 17.7186C53.6072 18.2115 53.486 18.7543 53.4941 19.3028C53.4941 19.901 53.6121 20.437 53.848 20.9097C54.0729 21.3694 54.4157 21.761 54.8415 22.0448C55.2822 22.3279 55.7946 22.4703 56.3777 22.4703ZM44.6428 25.3775C43.6181 25.3775 42.7199 25.15 41.948 24.6924C41.1973 24.2572 40.5769 23.6287 40.1514 22.8723C39.7259 22.1156 39.5127 21.2796 39.5127 20.3662V8.82936H43.4842V20.6493C43.4842 21.0285 43.619 21.3588 43.8861 21.6428C44.1541 21.926 44.4844 22.0684 44.8788 22.0684H49.2522V25.3775H44.6428Z" fill="#0C0F06" fill-opacity="0.3"/>
</g>
</g>
</g>
<defs>
<clipPath id="clip0_6197_16460">
<rect width="157.999" height="33.7064" fill="white" transform="translate(0.679016 0.49707)"/>
</clipPath>
<clipPath id="clip1_6197_16460">
<rect width="157.999" height="33.7064" fill="white" transform="translate(0.679138 0.49707)"/>
</clipPath>
</defs>
</svg>
