<svg width="140" height="35" viewBox="0 0 140 35" fill="none" xmlns="http://www.w3.org/2000/svg">
<g clip-path="url(#clip0_6197_16472)">
<g clip-path="url(#clip1_6197_16472)">
<mask id="mask0_6197_16472" style="mask-type:luminance" maskUnits="userSpaceOnUse" x="0" y="0" width="140" height="35">
<path d="M139.329 0.49707H0.290283V34.2035H139.329V0.49707Z" fill="white"/>
</mask>
<g mask="url(#mask0_6197_16472)">
<path d="M42.5138 24.2714H52.3396V21.3118H46.0062V10.1641H42.5138V24.2714Z" fill="#0C0F06" fill-opacity="0.3"/>
<path d="M58.1605 22.2997C56.7597 22.2997 56.0297 21.0764 56.0297 19.2414C56.0297 17.4065 56.7597 16.1635 58.1605 16.1635C59.5615 16.1635 60.3112 17.4065 60.3112 19.2414C60.3112 21.0764 59.5615 22.2997 58.1605 22.2997ZM58.1802 24.5884C61.4359 24.5884 63.5667 22.2799 63.5667 19.2414C63.5667 16.203 61.4359 13.8945 58.1802 13.8945C54.9444 13.8945 52.774 16.203 52.774 19.2414C52.774 22.2799 54.9444 24.5884 58.1802 24.5884Z" fill="#0C0F06" fill-opacity="0.3"/>
<path d="M69.2021 27.7643C70.7016 27.7643 72.0235 27.4289 72.9114 26.6397C73.7203 25.9097 74.2531 24.8048 74.2531 23.2855V14.17H71.1751V15.2551H71.1357C70.5437 14.4068 69.6361 13.874 68.2944 13.874C65.7887 13.874 64.0524 15.9655 64.0524 18.925C64.0524 22.0228 66.1635 23.7196 68.4325 23.7196C69.6558 23.7196 70.4253 23.2263 71.0173 22.5555H71.0962V23.5618C71.0962 24.7851 70.524 25.4954 69.1626 25.4954C68.0971 25.4954 67.5644 25.0416 67.3868 24.5088H64.2694C64.585 26.62 66.42 27.7643 69.2021 27.7643ZM69.1823 21.3322C67.9787 21.3322 67.1895 20.3456 67.1895 18.8264C67.1895 17.2874 67.9787 16.3009 69.1823 16.3009C70.524 16.3009 71.2343 17.4453 71.2343 18.8066C71.2343 20.2273 70.5832 21.3322 69.1823 21.3322Z" fill="#0C0F06" fill-opacity="0.3"/>
<path d="M80.5823 22.2997C79.1815 22.2997 78.4514 21.0764 78.4514 19.2414C78.4514 17.4065 79.1815 16.1635 80.5823 16.1635C81.9832 16.1635 82.733 17.4065 82.733 19.2414C82.733 21.0764 81.9832 22.2997 80.5823 22.2997ZM80.6021 24.5884C83.8576 24.5884 85.9885 22.2799 85.9885 19.2414C85.9885 16.203 83.8576 13.8945 80.6021 13.8945C77.3663 13.8945 75.1959 16.203 75.1959 19.2414C75.1959 22.2799 77.3663 24.5884 80.6021 24.5884Z" fill="#0C0F06" fill-opacity="0.3"/>
<path d="M86.9271 24.2714H90.1431V14.1694H86.9271V24.2714ZM86.9271 12.7685H90.1431V10.1641H86.9271V12.7685Z" fill="#0C0F06" fill-opacity="0.3"/>
<path d="M91.5397 27.6065H94.7557V23.2263H94.7952C95.4265 24.0747 96.3539 24.5877 97.6561 24.5877C100.3 24.5877 102.056 22.4963 102.056 19.221C102.056 16.1825 100.418 13.874 97.735 13.874C96.3539 13.874 95.3674 14.4857 94.6768 15.3933H94.6176V14.17H91.5397V27.6065ZM96.8275 22.1016C95.4464 22.1016 94.6571 20.977 94.6571 19.3394C94.6571 17.7018 95.3674 16.4588 96.7683 16.4588C98.1494 16.4588 98.8005 17.6031 98.8005 19.3394C98.8005 21.056 98.0507 22.1016 96.8275 22.1016Z" fill="#0C0F06" fill-opacity="0.3"/>
<path d="M107.291 24.5877C109.935 24.5877 111.889 23.4434 111.889 21.2335C111.889 18.6488 109.797 18.1951 108.021 17.8991C106.74 17.6623 105.595 17.5636 105.595 16.8534C105.595 16.222 106.207 15.926 106.995 15.926C107.883 15.926 108.495 16.2023 108.613 17.1098H111.573C111.415 15.1171 109.876 13.874 107.016 13.874C104.628 13.874 102.655 14.979 102.655 17.1098C102.655 19.4775 104.529 19.9511 106.286 20.2471C107.627 20.4837 108.85 20.5824 108.85 21.4901C108.85 22.1411 108.238 22.4963 107.271 22.4963C106.207 22.4963 105.536 22.0031 105.417 20.9968H102.379C102.477 23.2263 104.332 24.5877 107.291 24.5877Z" fill="#0C0F06" fill-opacity="0.3"/>
<path d="M116.257 24.5679C117.658 24.5679 118.546 24.0155 119.276 23.0289H119.335V24.2719H122.414V14.1699H119.197V19.8128C119.197 21.0164 118.526 21.8451 117.421 21.8451C116.395 21.8451 115.902 21.2334 115.902 20.1285V14.1699H112.707V20.7993C112.707 23.0486 113.929 24.5679 116.257 24.5679Z" fill="#0C0F06" fill-opacity="0.3"/>
<path d="M123.812 24.272H127.028V18.6093C127.028 17.4058 127.62 16.5574 128.626 16.5574C129.593 16.5574 130.047 17.1887 130.047 18.274V24.272H133.263V18.6093C133.263 17.4058 133.835 16.5574 134.861 16.5574C135.828 16.5574 136.282 17.1887 136.282 18.274V24.272H139.498V17.7018C139.498 15.4327 138.354 13.874 136.065 13.874C134.763 13.874 133.677 14.4265 132.888 15.6498H132.849C132.336 14.5646 131.329 13.874 130.007 13.874C128.547 13.874 127.58 14.5646 126.949 15.6103H126.89V14.17H123.812V24.272Z" fill="#0C0F06" fill-opacity="0.3"/>
<path fill-rule="evenodd" clip-rule="evenodd" d="M16.8837 34.1391C25.9645 34.1391 33.3258 26.7777 33.3258 17.697C33.3258 8.61629 25.9645 1.25488 16.8837 1.25488C7.80291 1.25488 0.441528 8.61629 0.441528 17.697C0.441528 26.7777 7.80291 34.1391 16.8837 34.1391ZM22.013 8.91432C22.2628 8.02744 21.4021 7.503 20.616 8.06299L9.64347 15.8798C8.79103 16.4871 8.92512 17.697 9.84489 17.697H12.7343V17.6747H18.3656L13.7771 19.2936L11.7543 26.4797C11.5046 27.3666 12.3652 27.8911 13.1513 27.331L24.1239 19.5142C24.9764 18.907 24.8422 17.697 23.9225 17.697H19.5408L22.013 8.91432Z" fill="#0C0F06" fill-opacity="0.3"/>
</g>
</g>
</g>
<defs>
<clipPath id="clip0_6197_16472">
<rect width="139.039" height="33.7064" fill="white" transform="translate(0.289429 0.49707)"/>
</clipPath>
<clipPath id="clip1_6197_16472">
<rect width="139.039" height="33.7064" fill="white" transform="translate(0.289551 0.49707)"/>
</clipPath>
</defs>
</svg>
