<svg width="155" height="35" viewBox="0 0 155 35" fill="none" xmlns="http://www.w3.org/2000/svg">
<g clip-path="url(#clip0_6197_16489)">
<g clip-path="url(#clip1_6197_16489)">
<mask id="mask0_6197_16489" style="mask-type:luminance" maskUnits="userSpaceOnUse" x="0" y="0" width="155" height="35">
<path d="M154.726 0.49707H0.940674V34.2035H154.726V0.49707Z" fill="white"/>
</mask>
<g mask="url(#mask0_6197_16489)">
<path fill-rule="evenodd" clip-rule="evenodd" d="M49.7532 2.74007C49.7532 1.59784 50.6945 0.671875 51.856 0.671875H55.5192C56.3458 0.671875 57.1469 0.95361 57.7859 1.46912L58.9004 2.36792L58.9283 2.39291C58.954 2.38438 58.9797 2.37605 59.0055 2.36792C61.0158 1.73457 63.4551 1.61413 65.9447 1.61413C68.4343 1.61413 70.8735 1.73457 72.884 2.36792C72.9098 2.37605 72.9355 2.38438 72.9612 2.39291L72.9891 2.36792L74.1034 1.46912C74.7426 0.95361 75.5436 0.671875 76.3702 0.671875H80.0334C81.1948 0.671875 82.1363 1.59784 82.1363 2.74007V4.01859C82.1363 5.00779 81.7126 5.95123 80.9691 6.61747L80.0702 7.42313C79.6313 7.81644 79.1045 8.10268 78.5324 8.25873L78.3198 8.31674C79.1527 10.2717 79.6129 12.3613 79.6129 14.0517C79.6129 20.8517 75.3352 23.7885 71.5659 26.3762C68.5976 28.414 65.9447 30.2352 65.9447 33.5562C65.9447 30.2352 63.2919 28.414 60.3235 26.3762C56.5543 23.7885 52.2765 20.8517 52.2765 14.0517C52.2765 12.3613 52.7367 10.2717 53.5697 8.31674L53.357 8.25873C52.7849 8.10268 52.2582 7.81644 51.8193 7.42313L50.9203 6.61747C50.1768 5.95123 49.7532 5.00779 49.7532 4.01859V2.74007ZM68.6784 19.6109C68.6784 19.9359 68.5344 20.2473 68.278 20.4772C68.0217 20.7068 67.674 20.8359 67.3115 20.8359C66.9985 20.8359 66.6966 20.7396 66.455 20.5655C66.8662 21.6482 67.9187 22.6741 69.5194 21.0244C70.9327 19.4914 69.4567 16.2581 68.0187 14.3394C67.5394 13.7 66.7525 13.3921 65.9447 13.3921C65.1369 13.3921 64.35 13.7 63.8708 14.3394C62.4328 16.2581 60.9568 19.4914 62.3699 21.0244C63.9707 22.6741 65.0231 21.6482 65.4344 20.5655C65.1928 20.7396 64.8908 20.8359 64.5779 20.8359C64.2153 20.8359 63.8677 20.7068 63.6113 20.4772C63.3551 20.2473 63.2111 19.9359 63.2111 19.6109H68.6784ZM60.7105 10.0399H56.9027L59.9036 12.4032C60.564 12.9232 61.5291 12.7569 61.9378 12.0529C62.4537 11.1638 61.7684 10.0399 60.7105 10.0399ZM71.179 10.0399H74.9867L71.9858 12.4032C71.3255 12.9232 70.3602 12.7569 69.9516 12.0529C69.4357 11.1638 70.121 10.0399 71.179 10.0399Z" fill="#0C0F06" fill-opacity="0.3"/>
<path d="M86.6719 23.9642H90.0451V11.312H86.6719V23.9642ZM86.6719 9.33901H90.0451V6.33008H86.6719V9.33901Z" fill="#0C0F06" fill-opacity="0.3"/>
<path d="M92.2191 28.1087H95.5925V22.5348H95.6421C96.3614 23.62 97.5271 24.3353 99.313 24.3353C102.587 24.3353 104.82 21.7456 104.82 17.6515C104.82 13.7054 102.662 10.9678 99.2883 10.9678C97.552 10.9678 96.3614 11.7816 95.5429 12.8915H95.4684V11.313H92.2191V28.1087ZM98.5937 21.5483C96.5846 21.5483 95.518 20.0438 95.518 17.7502C95.518 15.4811 96.3614 13.6807 98.4698 13.6807C100.553 13.6807 101.397 15.3578 101.397 17.7502C101.397 20.1425 100.305 21.5483 98.5937 21.5483Z" fill="#0C0F06" fill-opacity="0.3"/>
<path d="M111.549 24.3353C114.724 24.3353 116.906 22.8062 116.906 20.2658C116.906 17.3062 114.55 16.7143 112.417 16.2704C110.606 15.9005 108.919 15.8018 108.919 14.7166C108.919 13.804 109.788 13.3108 111.102 13.3108C112.54 13.3108 113.409 13.804 113.558 15.1605H116.608C116.361 12.6202 114.5 10.9678 111.152 10.9678C108.25 10.9678 105.968 12.2749 105.968 15.0125C105.968 17.7749 108.201 18.3914 110.482 18.8353C112.218 19.1806 113.831 19.304 113.831 20.5124C113.831 21.4003 112.987 21.9676 111.499 21.9676C109.986 21.9676 108.944 21.3263 108.721 19.8712H105.596C105.794 22.5595 107.853 24.3353 111.549 24.3353Z" fill="#0C0F06" fill-opacity="0.3"/>
<path d="M129.715 23.9647V11.3125H126.342V18.6128C126.342 20.2899 125.375 21.4737 123.787 21.4737C122.349 21.4737 121.679 20.6599 121.679 19.1801V11.3125H118.33V19.7473C118.33 22.5097 119.917 24.31 122.745 24.31C124.531 24.31 125.523 23.6441 126.391 22.4849H126.466V23.9647H129.715Z" fill="#0C0F06" fill-opacity="0.3"/>
<path d="M131.897 23.9652H135.271V16.6157C135.271 14.9386 136.188 13.8533 137.552 13.8533C138.792 13.8533 139.511 14.5933 139.511 16.0237V23.9652H142.885V16.6157C142.885 14.9386 143.753 13.8533 145.167 13.8533C146.408 13.8533 147.127 14.5933 147.127 16.0237V23.9652H150.5V15.4565C150.5 12.6942 148.987 10.9678 146.309 10.9678C144.696 10.9678 143.356 11.8063 142.488 13.1874H142.439C141.818 11.8557 140.529 10.9678 138.916 10.9678C137.155 10.9678 135.915 11.8557 135.221 13.0148H135.146V11.313H131.897V23.9652Z" fill="#0C0F06" fill-opacity="0.3"/>
<path d="M1.50684 23.9642H4.8802V6.33008H1.50684V23.9642Z" fill="#0C0F06" fill-opacity="0.3"/>
<path d="M13.1283 24.3353C17.0722 24.3353 19.7759 21.4249 19.7759 17.6515C19.7759 13.8781 17.0722 10.9678 13.1283 10.9678C9.18448 10.9678 6.48083 13.8781 6.48083 17.6515C6.48083 21.4249 9.18448 24.3353 13.1283 24.3353ZM13.1283 21.7702C11.0448 21.7702 9.90384 20.1179 9.90384 17.6515C9.90384 15.1851 11.0448 13.508 13.1283 13.508C15.1872 13.508 16.3529 15.1851 16.3529 17.6515C16.3529 20.1179 15.1872 21.7702 13.1283 21.7702Z" fill="#0C0F06" fill-opacity="0.3"/>
<path d="M26.9493 28.2813C28.8344 28.2813 30.4715 27.8374 31.538 26.8509C32.4806 25.9876 33.0511 24.7791 33.0511 23.0035V11.313H29.8018V12.6448H29.7522C28.9832 11.5844 27.8174 10.9678 26.23 10.9678C23.0054 10.9678 20.7234 13.3848 20.7234 17.1582C20.7234 20.9811 23.5015 23.2007 26.3292 23.2007C27.9414 23.2007 28.9088 22.5595 29.6529 21.7209H29.7273V23.102C29.7273 24.8285 28.8096 25.741 26.8997 25.741C25.337 25.741 24.6176 25.1244 24.3448 24.3353H20.9963C21.3436 26.8015 23.4767 28.2813 26.9493 28.2813ZM26.8997 20.5124C25.1634 20.5124 24.0224 19.2546 24.0224 17.1089C24.0224 14.9879 25.1634 13.656 26.8749 13.656C28.9088 13.656 29.901 15.2345 29.901 17.0843C29.901 18.9587 29.0329 20.5124 26.8997 20.5124Z" fill="#0C0F06" fill-opacity="0.3"/>
<path d="M41.2512 24.3353C45.195 24.3353 47.8987 21.4249 47.8987 17.6515C47.8987 13.8781 45.195 10.9678 41.2512 10.9678C37.3073 10.9678 34.6038 13.8781 34.6038 17.6515C34.6038 21.4249 37.3073 24.3353 41.2512 24.3353ZM41.2512 21.7702C39.1677 21.7702 38.0266 20.1179 38.0266 17.6515C38.0266 15.1851 39.1677 13.508 41.2512 13.508C43.3099 13.508 44.4757 15.1851 44.4757 17.6515C44.4757 20.1179 43.3099 21.7702 41.2512 21.7702Z" fill="#0C0F06" fill-opacity="0.3"/>
<path d="M150.348 8.55107C150.348 7.98352 150.81 7.52344 151.381 7.52344H153.448C154.019 7.52344 154.482 7.98352 154.482 8.55107C154.482 9.11857 154.019 9.57871 153.448 9.57871H151.381C150.81 9.57871 150.348 9.11857 150.348 8.55107Z" fill="#0C0F06" fill-opacity="0.3"/>
</g>
</g>
</g>
<defs>
<clipPath id="clip0_6197_16489">
<rect width="153.785" height="33.7064" fill="white" transform="translate(0.940063 0.49707)"/>
</clipPath>
<clipPath id="clip1_6197_16489">
<rect width="153.785" height="33.7064" fill="white" transform="translate(0.940063 0.49707)"/>
</clipPath>
</defs>
</svg>
