<svg width="176" height="35" viewBox="0 0 176 35" fill="none" xmlns="http://www.w3.org/2000/svg">
<g clip-path="url(#clip0_6197_16441)">
<g clip-path="url(#clip1_6197_16441)">
<mask id="mask0_6197_16441" style="mask-type:luminance" maskUnits="userSpaceOnUse" x="0" y="0" width="176" height="35">
<path d="M175.068 0.49707H0.216034V34.2035H175.068V0.49707Z" fill="white"/>
</mask>
<g mask="url(#mask0_6197_16441)">
<path d="M43.6048 18.0256C43.6347 17.4498 43.6347 16.8728 43.6048 16.2971H10.8068C10.7998 16.4405 10.7938 16.5848 10.7904 16.7291H3.91942L3.91596 16.9453H0.216034V17.3773H3.9151L3.92028 17.5935H10.7904C10.7938 17.7386 10.799 17.8821 10.8076 18.0256H20.2238C20.188 17.7388 20.1701 17.4502 20.1702 17.1613H33.9985C33.9985 17.4543 33.9812 17.743 33.9449 18.0256H43.6048ZM43.5365 15.4328H33.7816C33.7056 15.1387 33.6104 14.85 33.4964 14.5685H20.675C20.5617 14.8485 20.4658 15.1363 20.3897 15.4328H10.8742C10.8897 15.2885 10.907 15.1441 10.926 15.0006H4.05511L4.08449 14.7897H0.216034V14.3577H4.15277L4.19252 14.1364H11.0635C11.0894 13.9921 11.1188 13.8478 11.1499 13.7043H43.2626C43.3836 14.2704 43.4761 14.8468 43.5365 15.4328ZM43.0525 12.8399H32.4825C32.2333 12.5288 31.9578 12.2396 31.6589 11.9757H22.5115C22.2133 12.2402 21.9367 12.5289 21.6878 12.8399H11.3599C11.3988 12.6956 11.4403 12.5513 11.4834 12.4079H4.61256L4.68861 12.165H0.216034V11.7319H4.83295L4.90036 11.5428H11.7713C11.8231 11.3975 11.8784 11.2541 11.9355 11.1106H42.4761C42.699 11.6723 42.8918 12.2506 43.0525 12.8399ZM42.1044 10.2472H12.3071C12.3746 10.102 12.4437 9.95852 12.5154 9.81505H5.64535L5.76721 9.57652H0.216034V9.14438H6.00143L6.1112 8.95078H12.9821C13.066 8.80559 13.1523 8.66125 13.2405 8.51865H41.171C41.515 9.07351 41.8278 9.65084 42.1044 10.2472ZM10.8742 18.8898H43.5374C43.476 19.4758 43.3836 20.0531 43.2626 20.6184H33.0746C33.2345 20.3418 33.3762 20.0531 33.4972 19.7541H20.6732C20.7942 20.0531 20.9351 20.3418 21.0949 20.6184H11.149C11.1183 20.4748 11.0894 20.3307 11.0625 20.1862H4.19252C4.17845 20.1103 4.16491 20.0343 4.15191 19.9581H0.216034V19.5259H4.08362C4.0737 19.458 4.0642 19.39 4.05511 19.322H10.926C10.9069 19.1782 10.8896 19.0341 10.8742 18.8898ZM11.359 21.4827H43.0517C42.8918 22.073 42.699 22.6494 42.4761 23.2112H30.4351C30.873 22.9681 31.2833 22.6783 31.6589 22.3469H22.5115C22.8871 22.6783 23.2974 22.9681 23.7353 23.2112H11.9355C11.8788 23.0679 11.824 22.9238 11.7713 22.779H4.90036L4.82604 22.5708H0.216034V22.1386H4.68256C4.65899 22.0642 4.63594 21.9895 4.61342 21.9148H11.4834C11.4403 21.7713 11.3988 21.6278 11.359 21.4827ZM12.3071 24.0754H42.1044C41.8281 24.6697 41.5165 25.2469 41.171 25.8039H13.2405C13.1519 25.6613 13.0654 25.5172 12.9813 25.3719H6.1112C6.06798 25.2975 6.02564 25.2232 5.98414 25.148H0.216034V24.7159H5.75166L5.64535 24.5085H12.5162C12.4445 24.3654 12.3748 24.2205 12.3071 24.0754ZM14.8394 27.9646C14.9665 28.1116 15.097 28.255 15.23 28.3968H39.1815C39.6916 27.8532 40.1642 27.2758 40.5963 26.6682H13.8153C13.9189 26.8143 14.0244 26.9586 14.1333 27.1004H7.2624L7.43352 27.3207H0.216034V27.7529H7.787C7.84664 27.8246 7.90714 27.8947 7.9685 27.9646H14.8394ZM17.7062 30.5575C17.9162 30.707 18.1297 30.8513 18.3458 30.9896H36.0658C36.8613 30.4787 37.6114 29.9004 38.3077 29.2611H16.1047C16.2646 29.408 16.428 29.5523 16.5939 29.6931H9.72296C9.81631 29.7727 9.91051 29.8505 10.0056 29.9266H0.216034V30.3586H10.563C10.6529 30.426 10.7445 30.4926 10.8362 30.5575H17.7062ZM23.7708 33.2228C24.8788 33.4588 26.0273 33.5824 27.2054 33.5824C29.8448 33.5824 32.3382 32.9601 34.5473 31.8538H19.8634C20.1711 32.0077 20.4831 32.152 20.8003 32.286H13.9294C14.0521 32.3378 14.1756 32.3888 14.2993 32.4381H0.216034V32.8702H15.5352C17.0536 33.3334 18.6655 33.5824 20.3353 33.5824C21.5133 33.5824 22.6628 33.4588 23.7708 33.2228ZM13.8153 7.65439H40.5963C40.1643 7.04691 39.6916 6.46941 39.1815 5.92585H15.23C15.097 6.06759 14.9665 6.21106 14.8386 6.35799H7.9685L7.81639 6.53602H0.216034V6.96816H7.46032C7.39377 7.05199 7.32808 7.13669 7.26326 7.22225H14.1333C14.0244 7.36485 13.9189 7.50919 13.8153 7.65439ZM16.1039 5.06159H38.3069C37.6107 4.42224 36.861 3.84393 36.0658 3.33305H18.3458C18.1297 3.47219 17.9162 3.61653 17.7062 3.76519H10.8362C10.7411 3.83346 10.646 3.90174 10.5527 3.97174H0.216034V4.40388H9.99607C9.90446 4.4782 9.81371 4.5534 9.72383 4.62945H16.5939C16.428 4.77032 16.2646 4.91466 16.1039 5.06159ZM19.8642 2.46879H34.5482C32.269 1.32833 29.7548 0.736407 27.2062 0.740253C26.0273 0.740253 24.8788 0.864708 23.7708 1.10065C22.6414 0.86056 21.4899 0.739763 20.3353 0.740253C18.4909 0.740253 16.7184 1.04447 15.0633 1.60452H0.216034V2.03665H20.8003C20.4838 2.17081 20.1717 2.31493 19.8642 2.46879Z" fill="#0C0F06" fill-opacity="0.3"/>
<path fill-rule="evenodd" clip-rule="evenodd" d="M170.622 23.6275C170.586 23.4458 170.611 23.2091 170.696 22.9171L174.268 9.97656C173.696 10.2111 173.104 10.3938 172.499 10.5226C171.88 10.6448 171.169 10.7108 170.367 10.7238L170.24 11.1066C170.835 11.1066 171.206 11.2039 171.352 11.3986C171.496 11.5932 171.515 11.8959 171.406 12.309L170.56 15.4979C170.507 15.3441 170.416 15.2064 170.295 15.0978C170.088 14.9032 169.803 14.8058 169.438 14.8058C168.709 14.8058 168.034 14.9703 167.415 15.2979C166.791 15.6384 166.231 16.0824 165.756 16.6106C165.258 17.146 164.834 17.747 164.498 18.397C164.167 19.0296 163.905 19.6954 163.714 20.3835C163.542 20.9761 163.45 21.5894 163.441 22.2066C163.441 22.7894 163.533 23.2696 163.714 23.6459C163.898 24.0103 164.146 24.2839 164.461 24.4656C164.777 24.6364 165.13 24.7208 165.519 24.7208C166.114 24.7208 166.649 24.5456 167.123 24.1931C167.597 23.8286 168.039 23.2696 168.454 22.5159C168.627 22.2088 168.801 21.8639 168.974 21.4811L168.854 21.9331C168.744 22.2891 168.671 22.6554 168.636 23.0263C168.612 23.342 168.636 23.6102 168.709 23.8286C168.854 24.4234 169.304 24.7218 170.058 24.7218C170.337 24.7218 170.622 24.6666 170.914 24.5574C171.206 24.4483 171.478 24.2601 171.733 23.9919C172.002 23.7249 172.214 23.3431 172.372 22.8436L172.81 21.5135H172.463L172.172 22.3331C171.954 22.9538 171.747 23.3723 171.552 23.5908C171.369 23.7984 171.181 23.9011 170.987 23.9011C170.78 23.9011 170.659 23.8103 170.622 23.6275ZM169.65 18.9345C169.513 19.3789 169.363 19.8017 169.201 20.2008C168.898 20.9793 168.576 21.6476 168.234 22.2066C167.907 22.7527 167.584 23.1777 167.268 23.4826C166.953 23.7735 166.673 23.9195 166.431 23.9195C166.199 23.9195 166.03 23.8103 165.92 23.5918C165.823 23.3604 165.775 23.0144 165.775 22.5526C165.775 21.8963 165.846 21.228 165.993 20.5478C166.139 19.8558 166.339 19.1929 166.594 18.5614C166.829 17.9688 167.122 17.4008 167.468 16.8658C167.797 16.3554 168.144 15.9543 168.508 15.6623C168.884 15.3703 169.255 15.2254 169.619 15.2254C169.863 15.2254 170.058 15.3108 170.204 15.4806C170.305 15.5909 170.383 15.751 170.437 15.9629L169.65 18.9345Z" fill="#0C0F06" fill-opacity="0.3"/>
<path d="M158.493 24.4654H156.252L158.439 16.6105C158.549 16.246 158.585 15.9908 158.549 15.8449C158.512 15.6989 158.403 15.6264 158.221 15.6264C157.99 15.6264 157.777 15.7421 157.582 15.9725C157.387 16.2028 157.187 16.6105 156.981 17.1944L156.671 18.0497H156.325L156.799 16.6829C156.969 16.1963 157.181 15.8211 157.436 15.5529C157.692 15.2739 157.972 15.0792 158.275 14.97C158.58 14.8608 158.888 14.8057 159.204 14.8057C159.594 14.8057 159.88 14.8846 160.061 15.0435C160.256 15.2014 160.378 15.408 160.426 15.6632C160.487 15.9382 160.5 16.222 160.462 16.5012C160.438 16.7932 160.389 17.0787 160.316 17.3577L160.023 18.5006L160.098 18.306C160.438 17.4431 160.765 16.7565 161.081 16.246C161.41 15.7238 161.757 15.3528 162.121 15.1344C162.478 14.9173 162.888 14.8036 163.306 14.8057C163.743 14.8057 164.077 14.9332 164.309 15.1885C164.552 15.4437 164.673 15.7595 164.673 16.1368C164.673 16.4396 164.599 16.7261 164.454 16.9932C164.313 17.2439 164.112 17.4565 163.871 17.6129C163.64 17.7588 163.373 17.8313 163.069 17.8313C162.766 17.8313 162.522 17.7524 162.339 17.5945C162.169 17.4366 162.084 17.2052 162.084 16.9024C162.084 16.6343 162.145 16.392 162.266 16.1725C162.383 15.9588 162.546 15.7725 162.74 15.6264C162.935 15.4685 163.148 15.3593 163.379 15.2977C163.352 15.2726 163.322 15.2541 163.287 15.2437C163.246 15.2307 163.203 15.2245 163.16 15.2252C162.893 15.2252 162.619 15.3226 162.339 15.5172C162.06 15.6989 161.768 15.9973 161.465 16.4104C161.16 16.8234 160.851 17.3696 160.536 18.0497C160.179 18.854 159.863 19.6754 159.587 20.5109C159.45 20.9153 159.312 21.35 159.173 21.8161L158.493 24.4654Z" fill="#0C0F06" fill-opacity="0.3"/>
<path fill-rule="evenodd" clip-rule="evenodd" d="M151.683 21.6497L151.606 21.9331C151.491 22.3446 151.411 22.7654 151.369 23.1906C151.332 23.5799 151.393 23.9076 151.551 24.1746C151.795 24.5391 152.208 24.7218 152.79 24.7218C153.07 24.7218 153.35 24.6666 153.63 24.5574C153.92 24.4483 154.194 24.2601 154.449 23.9919C154.704 23.713 154.917 23.3237 155.087 22.8263L155.544 21.4961H155.196L154.923 22.3158C154.704 22.9473 154.492 23.367 154.286 23.5734C154.079 23.7789 153.878 23.8828 153.683 23.8828C153.525 23.8828 153.423 23.8341 153.374 23.7368C153.336 23.6129 153.323 23.4827 153.338 23.3539C153.361 23.1994 153.398 23.0472 153.446 22.8986L155.798 14.8058C155.433 14.8934 155.061 14.9544 154.686 14.9886C154.31 15.0254 153.904 15.0492 153.465 15.0611L153.201 16.0364C153.19 15.7888 153.118 15.5477 152.991 15.3346C152.897 15.1685 152.758 15.0315 152.591 14.9384C152.424 14.8451 152.234 14.7993 152.043 14.8058C151.509 14.8058 150.974 14.9703 150.439 15.2979C149.871 15.6554 149.361 16.0981 148.927 16.6106C148.436 17.1696 148.008 17.7805 147.651 18.4328C147.292 19.0867 147.005 19.7773 146.795 20.4926C146.596 21.1363 146.491 21.8055 146.485 22.4791C146.485 23.1604 146.643 23.7064 146.959 24.1195C147.274 24.5207 147.76 24.7208 148.417 24.7208C148.878 24.7208 149.322 24.5878 149.747 24.3206C150.184 24.0525 150.597 23.6091 150.987 22.9906C151.228 22.6175 151.459 22.1709 151.683 21.6497ZM150.112 23.4999C149.831 23.7551 149.583 23.8828 149.365 23.8828C149.181 23.8828 149.042 23.7919 148.946 23.6091C148.859 23.4145 148.817 23.0933 148.817 22.6435C148.817 21.999 148.89 21.3372 149.036 20.6571C149.181 19.9758 149.376 19.3205 149.62 18.689C149.875 18.0564 150.154 17.4919 150.458 16.9934C150.761 16.496 151.066 16.1003 151.369 15.8083C151.685 15.5163 151.982 15.3714 152.262 15.3714C152.553 15.3714 152.76 15.5174 152.882 15.8083C153.003 16.0722 153.035 16.4258 152.977 16.868L152.437 18.8599L152.499 18.543C152.305 19.3205 152.073 20.0374 151.806 20.6938C151.574 21.2806 151.293 21.8473 150.968 22.3883C150.676 22.8619 150.391 23.2329 150.112 23.4999ZM144.035 22.9171C143.95 23.2091 143.925 23.4458 143.962 23.6275C143.998 23.8103 144.12 23.9011 144.327 23.9011C144.522 23.9011 144.709 23.7984 144.891 23.5918C145.086 23.3723 145.293 22.9538 145.511 22.3331L145.802 21.5135H146.149L145.712 22.8436C145.554 23.342 145.341 23.7249 145.074 23.9919C144.847 24.2403 144.566 24.4337 144.253 24.5574C143.98 24.6636 143.689 24.7193 143.397 24.7218C142.644 24.7218 142.194 24.4234 142.048 23.8286C141.971 23.5686 141.946 23.2958 141.976 23.0263C142 22.7105 142.072 22.345 142.194 21.9331L142.314 21.4811C142.14 21.8639 141.966 22.2088 141.793 22.5159C141.38 23.2696 140.936 23.8286 140.463 24.192C140.001 24.5408 139.437 24.7271 138.858 24.7218C138.47 24.7218 138.117 24.6354 137.801 24.4666C137.476 24.2741 137.216 23.9881 137.055 23.6459C136.871 23.2696 136.781 22.7894 136.781 22.2066C136.781 21.6476 136.871 21.0388 137.055 20.3835C137.236 19.7152 137.498 19.0534 137.837 18.397C138.173 17.7473 138.597 17.1463 139.095 16.6106C139.593 16.0635 140.146 15.6266 140.754 15.2979C141.377 14.969 142.073 14.7999 142.777 14.8058C143.142 14.8058 143.427 14.9032 143.634 15.0978C143.753 15.2027 143.842 15.3358 143.9 15.4979L144.745 12.309C144.855 11.8959 144.837 11.592 144.691 11.3975C144.545 11.2028 144.174 11.1055 143.58 11.1055L143.707 10.7238C144.423 10.7197 145.136 10.6524 145.839 10.5226C146.444 10.3938 147.036 10.2111 147.608 9.97656L144.035 22.9171ZM142.54 20.2008C142.702 19.8006 142.853 19.3789 142.989 18.9345L143.777 15.9629C143.739 15.7855 143.659 15.62 143.543 15.4806C143.471 15.3969 143.382 15.3304 143.281 15.2862C143.18 15.242 143.07 15.2212 142.96 15.2254C142.595 15.2254 142.224 15.3714 141.848 15.6623C141.483 15.9543 141.136 16.3554 140.809 16.8658C140.462 17.4002 140.169 17.9678 139.934 18.5603C139.675 19.2037 139.474 19.8688 139.333 20.5478C139.19 21.2065 139.116 21.8785 139.114 22.5526C139.114 23.0144 139.162 23.3604 139.259 23.5908C139.369 23.8103 139.539 23.9195 139.77 23.9195C140.013 23.9195 140.292 23.7735 140.607 23.4816C140.924 23.1787 141.246 22.7527 141.574 22.2056C141.954 21.5662 142.276 20.8954 142.54 20.2008Z" fill="#0C0F06" fill-opacity="0.3"/>
<path d="M126.744 24.4653H128.985L129.196 23.6414L129.185 23.7008C129.417 22.8498 129.677 22.0301 129.969 21.2397C130.253 20.4853 130.569 19.7435 130.917 19.0164C131.246 18.3351 131.573 17.7404 131.902 17.23C132.229 16.7197 132.545 16.3249 132.849 16.0449C133.153 15.7529 133.432 15.608 133.687 15.608C133.894 15.608 134.021 15.6805 134.07 15.8264C134.12 15.992 134.126 16.1679 134.089 16.3368C134.052 16.5343 134.003 16.7294 133.942 16.9207L132.284 21.9328C132.114 22.4432 132.017 22.88 131.992 23.2445C131.968 23.6089 132.035 23.9073 132.193 24.1377C132.315 24.3204 132.484 24.4599 132.703 24.5572C132.934 24.6653 133.208 24.7216 133.524 24.7216C133.815 24.7216 134.106 24.6665 134.398 24.5572C134.703 24.4599 134.982 24.2772 135.237 24.01C135.504 23.743 135.723 23.3537 135.893 22.8433L136.348 21.5132H136.002L135.711 22.3329C135.48 22.9655 135.262 23.3839 135.055 23.5905C134.861 23.7981 134.672 23.9008 134.49 23.9008C134.295 23.9008 134.174 23.8219 134.125 23.663C134.076 23.4942 134.106 23.2445 134.216 22.9168L136.002 17.5577C136.16 17.084 136.239 16.6407 136.239 16.2275C136.251 15.8026 136.136 15.462 135.893 15.2068C135.661 14.9398 135.248 14.8067 134.654 14.8067C134.204 14.8067 133.773 14.904 133.36 15.0975C132.947 15.2922 132.545 15.6318 132.157 16.1184C131.768 16.592 131.367 17.2365 130.954 18.0497C130.679 18.5982 130.428 19.1577 130.2 19.7268L130.807 17.3576C130.881 17.0657 130.935 16.7737 130.972 16.4828C131.009 16.18 130.996 15.9053 130.935 15.662C130.877 15.4108 130.728 15.19 130.517 15.0425C130.31 14.8846 130.006 14.8057 129.605 14.8057C129.118 14.8057 128.676 14.9398 128.274 15.2068C127.874 15.4739 127.545 15.9659 127.289 16.6828L126.816 18.0497H127.162L127.473 17.1932C127.691 16.5985 127.891 16.1908 128.074 15.9724C128.269 15.7421 128.481 15.6264 128.711 15.6264C128.882 15.6264 128.985 15.6751 129.022 15.7723C129.069 15.8696 129.083 15.9908 129.058 16.1367C129.03 16.2966 128.995 16.4547 128.948 16.6104L126.744 24.4653Z" fill="#0C0F06" fill-opacity="0.3"/>
<path fill-rule="evenodd" clip-rule="evenodd" d="M122.098 21.9328L122.175 21.6494C121.98 22.1149 121.748 22.5634 121.479 22.9903C121.089 23.6089 120.676 24.0533 120.238 24.3204C119.814 24.5875 119.37 24.7205 118.909 24.7205C118.252 24.7205 117.767 24.5205 117.451 24.1193C117.134 23.7063 116.976 23.1601 116.976 22.4789C116.976 21.8474 117.08 21.1855 117.287 20.4925C117.497 19.777 117.784 19.0865 118.143 18.4325C118.5 17.78 118.928 17.169 119.419 16.6104C119.853 16.0979 120.364 15.6551 120.931 15.2977C121.466 14.97 122.001 14.8057 122.536 14.8057C122.948 14.8057 123.264 14.9819 123.484 15.3355C123.6 15.516 123.671 15.7497 123.693 16.0362L123.958 15.0608C124.395 15.0489 124.802 15.0252 125.178 14.9884C125.567 14.9517 125.938 14.8911 126.29 14.8057L123.939 22.8995C123.889 23.0478 123.853 23.2001 123.83 23.3548C123.816 23.4836 123.828 23.6138 123.867 23.7375C123.915 23.8349 124.018 23.8835 124.176 23.8835C124.37 23.8835 124.571 23.7808 124.777 23.5743C124.983 23.3677 125.196 22.9471 125.415 22.3167L125.688 21.496H126.035L125.58 22.826C125.41 23.3245 125.196 23.7127 124.941 23.9938C124.715 24.2416 124.434 24.4346 124.122 24.5583C123.854 24.6653 123.57 24.721 123.282 24.7227C122.7 24.7227 122.287 24.54 122.044 24.1755C121.886 23.9084 121.825 23.5808 121.861 23.1915C121.905 22.7663 121.984 22.3444 122.098 21.9328ZM119.856 23.8825C120.075 23.8825 120.324 23.7549 120.604 23.4997C120.883 23.2326 121.168 22.8617 121.46 22.388C121.752 21.9144 122.031 21.35 122.299 20.6935C122.566 20.0372 122.797 19.3202 122.992 18.5417L122.931 18.8596L123.469 16.8688C123.526 16.4255 123.494 16.0719 123.375 15.8092C123.252 15.5172 123.045 15.3712 122.754 15.3712C122.474 15.3712 122.177 15.5172 121.861 15.808C121.558 16.1 121.254 16.4947 120.95 16.9932C120.646 17.4906 120.366 18.0561 120.111 18.6877C119.866 19.3277 119.672 19.9856 119.528 20.6557C119.385 21.3087 119.312 21.9749 119.309 22.6432C119.309 23.0931 119.352 23.4153 119.438 23.6089C119.535 23.7917 119.674 23.8825 119.856 23.8825Z" fill="#0C0F06" fill-opacity="0.3"/>
<path d="M118.24 15.4255L118.296 15.0611H116.124L116.983 12.0722C116.623 12.1607 116.258 12.2218 115.889 12.2549C115.513 12.2907 115.106 12.3155 114.668 12.3274L113.885 15.0611H112.226L112.135 15.4255H113.78L111.916 21.933C111.758 22.4672 111.703 22.9474 111.753 23.3724C111.813 23.7854 111.982 24.1141 112.263 24.3564C112.553 24.5997 112.974 24.7219 113.52 24.7219C114.14 24.7219 114.674 24.5575 115.123 24.2287C115.574 23.9011 115.926 23.3605 116.181 22.6067L116.545 21.5135H116.199L115.926 22.2607C115.707 22.8685 115.465 23.2934 115.196 23.5367C114.941 23.78 114.686 23.9011 114.43 23.9011C114.33 23.9044 114.231 23.8847 114.14 23.8435C114.048 23.8022 113.967 23.7406 113.903 23.6632C113.78 23.5065 113.769 23.2577 113.867 22.9171L116.019 15.4255H118.24ZM112.205 11.4342C112.084 11.75 111.919 12.2128 111.713 12.8194C111.518 13.4142 111.324 14.1927 111.129 15.1519H110.765C110.801 14.9821 110.826 14.8059 110.837 14.6242C110.861 14.4612 110.873 14.2968 110.874 14.1322C110.874 13.6575 110.777 13.2455 110.583 12.8929C110.395 12.5232 110.095 12.2229 109.726 12.0354C109.349 11.8171 108.862 11.7079 108.268 11.7079C107.624 11.7079 107.076 11.8775 106.627 12.2182C106.178 12.5459 105.953 13.0746 105.953 13.8034C105.953 14.2533 106.055 14.6794 106.262 15.0794C106.482 15.4687 106.756 15.8515 107.083 16.2279C107.424 16.5922 107.782 16.9632 108.158 17.3395C108.535 17.7039 108.888 18.0813 109.215 18.4695C109.543 18.8588 109.812 19.2719 110.018 19.7087C110.236 20.1348 110.346 20.6019 110.346 21.1124C110.346 21.7568 110.188 22.3094 109.872 22.7711C109.564 23.2247 109.16 23.6043 108.687 23.8827C108.192 24.1658 107.657 24.3746 107.101 24.5024C106.566 24.6453 106.015 24.719 105.461 24.7219C104.914 24.7219 104.459 24.6786 104.094 24.5942C103.783 24.5356 103.482 24.431 103.201 24.2839C102.962 24.1531 102.725 24.0197 102.489 23.8838C102.382 23.7938 102.258 23.7254 102.125 23.6827C102.04 23.64 101.947 23.615 101.852 23.6092C101.694 23.6092 101.561 23.6881 101.451 23.847C101.308 24.0844 101.186 24.3342 101.087 24.5932H100.721C101.022 23.8521 101.273 23.0911 101.47 22.3159C101.615 21.7568 101.779 21.0582 101.962 20.2191H102.326C102.275 20.4606 102.233 20.7036 102.199 20.9479C102.162 21.1912 102.15 21.4346 102.162 21.6779C102.199 22.5278 102.459 23.1841 102.946 23.6459C103.444 24.1077 104.173 24.338 105.132 24.338C105.947 24.338 106.561 24.1682 106.974 23.8287C107.387 23.4761 107.593 22.9658 107.593 22.2975C107.593 21.7871 107.496 21.3243 107.301 20.9122C107.118 20.4837 106.872 20.0844 106.573 19.7271C106.264 19.3573 105.942 18.9989 105.607 18.6522C105.272 18.3056 104.949 17.9467 104.64 17.5763C104.342 17.2083 104.091 16.8043 103.893 16.3739C103.694 15.9136 103.595 15.4164 103.602 14.9151C103.602 14.3085 103.73 13.7796 103.985 13.3299C104.242 12.8911 104.59 12.5121 105.005 12.2182C105.43 11.9143 105.905 11.686 106.408 11.5434C106.898 11.3889 107.408 11.3091 107.921 11.3066C108.577 11.3066 109.118 11.3855 109.543 11.5445C109.97 11.7013 110.334 11.8906 110.637 12.109L110.984 12.3274C111.092 12.3761 111.178 12.3999 111.239 12.3999C111.408 12.3999 111.61 12.0787 111.84 11.4342H112.205Z" fill="#0C0F06" fill-opacity="0.3"/>
<path fill-rule="evenodd" clip-rule="evenodd" d="M94.6109 23.6275C94.5742 23.4458 94.599 23.2091 94.6845 22.9171L98.2562 9.97656C97.6843 10.2111 97.0927 10.3938 96.4882 10.5226C95.8686 10.6448 95.1581 10.7108 94.3557 10.7238L94.2282 11.1066C94.8229 11.1066 95.1949 11.2039 95.3397 11.3986C95.4857 11.5932 95.5042 11.8959 95.3949 12.309L94.5493 15.4979C94.4962 15.3441 94.4046 15.2063 94.2834 15.0978C94.0768 14.9032 93.7913 14.8058 93.4269 14.8058C92.6969 14.8058 92.0233 14.9703 91.4037 15.2979C90.7804 15.6384 90.2195 16.0823 89.7449 16.6106C89.2462 17.146 88.8231 17.747 88.4873 18.397C88.1563 19.0295 87.8935 19.6954 87.7033 20.3835C87.5303 20.976 87.4382 21.5894 87.4297 22.2066C87.4297 22.7894 87.5216 23.2696 87.7033 23.6459C87.8861 24.0103 88.1348 24.2839 88.4505 24.4656C88.7662 24.6364 89.1188 24.7208 89.5081 24.7208C90.1028 24.7208 90.6381 24.5456 91.1117 24.1931C91.5854 23.8286 92.0287 23.2696 92.4417 22.5159C92.6148 22.2088 92.7889 21.8639 92.963 21.4811L92.844 21.9331C92.7335 22.289 92.6599 22.6553 92.6245 23.0263C92.5955 23.2959 92.6202 23.5686 92.6969 23.8286C92.8429 24.4234 93.2918 24.7218 94.0465 24.7218C94.3255 24.7218 94.6109 24.6666 94.9029 24.5574C95.1949 24.4483 95.4674 24.2601 95.7226 23.9919C95.9908 23.7249 96.2027 23.3431 96.3606 22.8436L96.7985 21.5135H96.4525L96.1605 22.3331C95.9421 22.9538 95.7356 23.3723 95.5409 23.5908C95.3582 23.7984 95.17 23.9011 94.9754 23.9011C94.7699 23.9011 94.6477 23.8103 94.6109 23.6275ZM93.6378 18.9345C93.5015 19.3789 93.3522 19.8017 93.1889 20.2008C92.8862 20.9793 92.564 21.6476 92.2234 22.2066C91.8957 22.7527 91.5735 23.1777 91.2577 23.4826C90.9419 23.7735 90.663 23.9195 90.4186 23.9195C90.1882 23.9195 90.0184 23.8103 89.9092 23.5918C89.8119 23.3604 89.7632 23.0144 89.7632 22.5526C89.7632 21.8963 89.8357 21.228 89.9817 20.5478C90.1277 19.8558 90.3277 19.1929 90.5829 18.5614C90.818 17.9687 91.1115 17.4006 91.4589 16.8658C91.7864 16.3554 92.1325 15.9543 92.4969 15.6623C92.8733 15.3703 93.2441 15.2254 93.6086 15.2254C93.8518 15.2254 94.0465 15.3108 94.1924 15.4806C94.2941 15.5909 94.3719 15.751 94.4261 15.9629L93.6378 18.9345Z" fill="#0C0F06" fill-opacity="0.3"/>
<path d="M79.6344 24.4653H77.3927L79.5987 16.6104C79.6473 16.4406 79.683 16.2827 79.7067 16.1367C79.7339 16.0146 79.7214 15.8869 79.6711 15.7723C79.6344 15.6751 79.5305 15.6264 79.3607 15.6264C79.1305 15.6264 78.9174 15.7421 78.7227 15.9724C78.5411 16.1908 78.34 16.5985 78.1215 17.1943L77.8122 18.0497H77.4662L77.9399 16.6828C78.1951 15.9659 78.5238 15.4739 78.9239 15.2068C79.324 14.9398 79.7673 14.8067 80.254 14.8067C80.6552 14.8067 80.9589 14.8846 81.1655 15.0425C81.3773 15.1898 81.5269 15.4107 81.5851 15.662C81.6456 15.9053 81.6575 16.1789 81.6219 16.4828C81.5847 16.7774 81.5298 17.0696 81.4575 17.3576L80.8498 19.728C81.1071 19.091 81.3581 18.5331 81.6035 18.0497C82.0166 17.2365 82.4166 16.592 82.8059 16.1184C83.1953 15.6318 83.5953 15.2922 84.0084 15.0975C84.4226 14.903 84.853 14.8057 85.3028 14.8057C85.8976 14.8057 86.3116 14.9398 86.542 15.2068C86.7853 15.462 86.901 15.8016 86.888 16.2275C86.888 16.6407 86.8102 17.084 86.6512 17.5577L84.8659 22.9168C84.7557 23.2445 84.7253 23.4942 84.774 23.663C84.8226 23.8219 84.9448 23.9008 85.1395 23.9008C85.3212 23.9008 85.5093 23.7981 85.704 23.5915C85.9105 23.3839 86.129 22.9644 86.3603 22.3329L86.6523 21.5132H86.9983L86.542 22.8433C86.3722 23.3537 86.1527 23.743 85.8867 24.0112C85.6577 24.2613 85.369 24.4491 85.0476 24.5572C84.7683 24.6644 84.4719 24.7201 84.1727 24.7216C83.8571 24.7216 83.5834 24.6665 83.3531 24.5572C83.1336 24.4599 82.9638 24.3193 82.8427 24.1377C82.6848 23.9073 82.6178 23.6089 82.6416 23.2445C82.6665 22.88 82.7638 22.4432 82.9335 21.9328L84.5924 16.9207C84.6529 16.7261 84.7015 16.5314 84.7383 16.3368C84.7765 16.1679 84.7702 15.992 84.7199 15.8264C84.6713 15.6805 84.5437 15.608 84.3372 15.608C84.0819 15.608 83.8019 15.754 83.4991 16.0449C83.1953 16.3249 82.8784 16.7197 82.5507 17.23C82.187 17.8051 81.8584 18.4016 81.5667 19.0164C81.239 19.6976 80.9222 20.4373 80.6184 21.2397C80.3264 22.029 80.0669 22.8498 79.8355 23.7008L79.8463 23.6414L79.6344 24.4653Z" fill="#0C0F06" fill-opacity="0.3"/>
<path fill-rule="evenodd" clip-rule="evenodd" d="M72.8236 21.6491L72.7479 21.9325C72.633 22.3441 72.5535 22.7649 72.51 23.19C72.4733 23.5794 72.5337 23.907 72.6916 24.1741C72.9349 24.5385 73.3481 24.7213 73.9319 24.7213C74.2436 24.719 74.5515 24.6531 74.8367 24.5277C75.122 24.4021 75.3785 24.2196 75.5908 23.9913C75.8459 23.7124 76.0579 23.3231 76.2288 22.8257L76.6829 21.4956H76.3369L76.0644 22.3153C75.8449 22.9467 75.6319 23.3664 75.4264 23.5728C75.2198 23.7783 75.0187 23.8821 74.8251 23.8821C74.6662 23.8821 74.5635 23.8334 74.5148 23.7362C74.4768 23.6123 74.4643 23.4821 74.4781 23.3533C74.5029 23.1955 74.5386 23.0441 74.5883 22.8981L76.9391 14.8053C76.5735 14.8927 76.202 14.9538 75.8276 14.988C75.4502 15.0248 75.0436 15.0486 74.6056 15.0605L74.3418 16.0359C74.3305 15.7882 74.2584 15.5472 74.132 15.334C74.0371 15.1681 73.8988 15.0312 73.7319 14.938C73.5649 14.8449 73.3758 14.7989 73.1848 14.8053C72.6495 14.8053 72.1142 14.9697 71.58 15.2973C71.0458 15.626 70.5419 16.0629 70.0673 16.61C69.5763 17.1687 69.1483 17.7797 68.7913 18.4322C68.4328 19.0861 68.1457 19.7767 67.9348 20.4921C67.7359 21.1357 67.6318 21.8049 67.6255 22.4785C67.6255 23.1598 67.7834 23.7059 68.0991 24.119C68.4149 24.5201 68.9015 24.7202 69.5568 24.7202C70.0186 24.7202 70.463 24.5872 70.8868 24.32C71.3248 24.0519 71.739 23.6085 72.1271 22.99C72.3684 22.6169 72.5998 22.1703 72.8236 21.6491ZM71.2524 23.4993C70.9733 23.7545 70.7236 23.8821 70.5051 23.8821C70.3224 23.8821 70.1829 23.7913 70.0856 23.6085C70.0012 23.4139 69.958 23.0927 69.958 22.6429C69.958 21.9984 70.0316 21.3366 70.1775 20.6565C70.3224 19.9752 70.517 19.3199 70.7603 18.6884C71.0156 18.0558 71.2946 17.4913 71.5984 16.9928C71.9023 16.4954 72.2061 16.0997 72.51 15.8077C72.8257 15.5157 73.1231 15.3708 73.4031 15.3708C73.6951 15.3708 73.9006 15.5168 74.0228 15.8077C74.1439 16.0716 74.1742 16.4252 74.1169 16.8675L73.5783 18.8593L73.64 18.5425C73.4454 19.3199 73.215 20.0368 72.9479 20.6932C72.6797 21.3485 72.4008 21.914 72.1088 22.3877C71.8168 22.8613 71.5314 23.2323 71.2524 23.4993Z" fill="#0C0F06" fill-opacity="0.3"/>
<path d="M62.751 24.4654H60.5094L62.6959 16.6105C62.805 16.246 62.8418 15.9908 62.805 15.8449C62.7694 15.6989 62.6602 15.6264 62.4774 15.6264C62.2471 15.6264 62.0341 15.7421 61.8394 15.9725C61.6448 16.2028 61.4447 16.6105 61.2382 17.1944L60.9279 18.0497H60.5818L61.0554 16.6829C61.2263 16.1963 61.4382 15.8211 61.6934 15.5529C61.9487 15.2739 62.2287 15.0792 62.5325 14.97C62.8354 14.8608 63.1457 14.8057 63.4625 14.8057C63.8508 14.8057 64.1362 14.8846 64.3179 15.0435C64.5112 15.1987 64.6412 15.419 64.6834 15.6632C64.7439 15.9184 64.7558 16.1973 64.719 16.5012C64.6952 16.7932 64.6466 17.0787 64.573 17.3577L64.2811 18.5006L64.3103 18.4218L64.3547 18.306C64.6952 17.4431 65.0229 16.7565 65.3387 16.246C65.6674 15.7238 66.0134 15.3528 66.3778 15.1344C66.7349 14.9173 67.1451 14.8036 67.563 14.8057C67.9999 14.8057 68.334 14.9332 68.5654 15.1885C68.8076 15.4437 68.9298 15.7595 68.9298 16.1368C68.9298 16.4396 68.8563 16.7261 68.7103 16.9932C68.5689 17.2438 68.3689 17.4564 68.1275 17.6129C67.8866 17.7613 67.608 17.8372 67.3251 17.8313C67.0223 17.8313 66.779 17.7524 66.5962 17.5945C66.4265 17.4366 66.341 17.2052 66.341 16.9024C66.341 16.6343 66.4016 16.392 66.5238 16.1725C66.6449 15.954 66.8028 15.7724 66.9975 15.6264C67.1921 15.4685 67.404 15.3593 67.6355 15.2977C67.6099 15.2728 67.5787 15.2543 67.5446 15.2437C67.5204 15.2354 67.4954 15.23 67.47 15.2274C67.4521 15.2257 67.434 15.225 67.4159 15.2252C67.1499 15.2252 66.8753 15.3226 66.5962 15.5172C66.3173 15.6989 66.0253 15.9973 65.7215 16.4104C65.4186 16.8234 65.1083 17.3696 64.7915 18.0497C64.4352 18.8539 64.119 19.6753 63.8442 20.5109C63.7069 20.9142 63.5685 21.35 63.4301 21.8161L62.751 24.4654Z" fill="#0C0F06" fill-opacity="0.3"/>
<path fill-rule="evenodd" clip-rule="evenodd" d="M59.3415 12.2363C58.7337 11.7984 57.7616 11.58 56.425 11.58C56.012 11.58 55.5989 11.5865 55.1847 11.5983C54.7847 11.6102 54.3229 11.6167 53.8007 11.6167H52.889C52.5604 11.6038 52.251 11.5983 51.9591 11.5983C51.716 11.5876 51.4731 11.5753 51.2302 11.5615L51.1394 11.926C51.613 11.926 51.9353 11.9865 52.1051 12.1087C52.2878 12.2169 52.3721 12.3878 52.3602 12.6192C52.3358 12.9142 52.2869 13.2068 52.2142 13.494L49.8082 22.534C49.7002 22.9709 49.578 23.2996 49.4439 23.518C49.3228 23.727 49.128 23.8832 48.8977 23.956C48.6663 24.0285 48.3441 24.0771 47.9311 24.1009L47.8586 24.4653C48.064 24.4545 48.3139 24.448 48.6047 24.448C48.8967 24.435 49.207 24.4296 49.5347 24.4296C50.4519 24.4018 51.3699 24.4079 52.2867 24.448C52.7853 24.4589 53.2416 24.4664 53.6547 24.4664C54.444 24.4664 55.1913 24.3864 55.8962 24.2285C56.5461 24.0811 57.1677 23.8291 57.7367 23.4823C58.2458 23.1791 58.6766 22.7606 58.9944 22.2605C59.3101 21.7738 59.468 21.204 59.468 20.5475C59.468 19.8058 59.1652 19.1678 58.5575 18.6335C57.9628 18.0984 57.0198 17.7826 55.7319 17.6852C56.5354 17.5699 57.3161 17.3302 58.046 16.9748C58.7273 16.6223 59.2614 16.1908 59.6507 15.6804C60.0426 15.1958 60.255 14.5908 60.252 13.9675C60.252 13.2387 59.9503 12.6613 59.3415 12.2363ZM53.5238 17.9232L52.3051 22.534C52.2327 22.8368 52.184 23.105 52.1602 23.3353C52.1473 23.5667 52.2078 23.743 52.3419 23.8652C52.476 23.9862 52.7247 24.0468 53.0891 24.0468C53.952 24.0468 54.657 23.8825 55.2032 23.5548C55.7381 23.2402 56.1645 22.7697 56.425 22.2063C56.6921 21.6225 56.8252 20.966 56.8252 20.2383C56.8252 19.7874 56.7462 19.3927 56.5884 19.0532C56.4493 18.7082 56.1994 18.4194 55.8779 18.2324C55.5502 18.0259 55.1123 17.9232 54.5652 17.9232H53.5238ZM53.606 17.6128H54.4387C55.1307 17.6128 55.72 17.4365 56.2055 17.084C56.704 16.7196 57.0814 16.246 57.3367 15.6632C57.6024 15.0857 57.7389 14.4572 57.7367 13.8215C57.7367 13.2139 57.6156 12.7467 57.3723 12.418C57.142 12.0903 56.7344 11.926 56.1504 11.926C55.7266 11.926 55.4227 12.0114 55.2399 12.1812C55.0582 12.3391 54.9003 12.6851 54.7662 13.2192L53.606 17.6128Z" fill="#0C0F06" fill-opacity="0.3"/>
</g>
</g>
</g>
<defs>
<clipPath id="clip0_6197_16441">
<rect width="174.852" height="33.7064" fill="white" transform="translate(0.214783 0.49707)"/>
</clipPath>
<clipPath id="clip1_6197_16441">
<rect width="174.852" height="33.7064" fill="white" transform="translate(0.214966 0.49707)"/>
</clipPath>
</defs>
</svg>
