<svg width="29" height="29" viewBox="0 0 29 29" fill="none" xmlns="http://www.w3.org/2000/svg">
<rect x="0.832931" y="1.19823" width="26.7025" height="26.7025" rx="13.3513" fill="white"/>
<rect x="0.832931" y="1.19823" width="26.7025" height="26.7025" rx="13.3513" stroke="#CECECE" stroke-width="0.988982"/>
<g clip-path="url(#clip0_6197_15940)">
<g clip-path="url(#clip1_6197_15940)">
<g clip-path="url(#clip2_6197_15940)">
<path fill-rule="evenodd" clip-rule="evenodd" d="M13.9749 12.5436C12.658 12.4072 11.669 11.7526 11.1466 11.1591L11.9472 10.4627C12.3065 10.871 13.054 11.3827 14.0806 11.4891C15.0893 11.5935 16.4275 11.3123 17.9915 10.0406L18.3625 10.4117L18.5909 10.6351L18.9321 10.9763C17.6537 12.532 17.371 13.8631 17.4761 14.8666C17.583 15.8877 18.0975 16.6312 18.5079 16.9886L17.8077 17.785C17.2111 17.2653 16.553 16.2815 16.4158 14.9716C16.3519 14.3616 16.4021 13.6933 16.6134 12.9805L10.0667 19.7984L9.29895 19.0591L15.6625 12.4297C15.0631 12.5695 14.4978 12.5978 13.9749 12.5436Z" fill="#808080"/>
</g>
</g>
</g>
<defs>
<clipPath id="clip0_6197_15940">
<rect width="9.88982" height="10.8788" fill="white" transform="translate(9.23981 9.11011)"/>
</clipPath>
<clipPath id="clip1_6197_15940">
<rect width="9.88982" height="10.8788" fill="white" transform="translate(9.23981 9.11011)"/>
</clipPath>
<clipPath id="clip2_6197_15940">
<rect width="9.88982" height="10.8788" fill="white" transform="translate(9.23981 9.11011)"/>
</clipPath>
</defs>
</svg>
