<svg width="24" height="15" viewBox="0 0 24 15" fill="none" xmlns="http://www.w3.org/2000/svg">
<g clip-path="url(#clip0_6197_16663)">
<g clip-path="url(#clip1_6197_16663)">
<path fill-rule="evenodd" clip-rule="evenodd" d="M0.204041 8.27369L0.204041 6.60945H18.6508C18.5848 6.55825 18.5193 6.50564 18.4542 6.45156C17.0465 5.28103 15.9282 3.44435 15.9282 0.758187V0.0878907L17.5194 0.0878906V0.758185C17.5194 2.88815 18.3799 4.26224 19.4459 5.14862C20.5412 6.05953 21.8717 6.46438 22.7376 6.5522L23.3772 6.61706L23.2889 7.33318V7.58913L23.3772 8.30526L22.7376 8.37013C21.8717 8.45795 20.5412 8.8628 19.4459 9.77371C18.3799 10.6601 17.5194 12.0342 17.5194 14.1641V14.8344H15.9282V14.1641C15.9282 11.478 17.0465 9.64128 18.4542 8.47077C18.5359 8.40279 18.6186 8.33712 18.7019 8.27369H0.204041Z" fill="#808080"/>
</g>
</g>
<defs>
<clipPath id="clip0_6197_16663">
<rect width="23.1731" height="14.7465" fill="white" transform="translate(0.204041 0.0878906)"/>
</clipPath>
<clipPath id="clip1_6197_16663">
<rect width="23.1731" height="14.7465" fill="white" transform="translate(0.204041 0.0878906)"/>
</clipPath>
</defs>
</svg>
