<svg width="64" height="64" viewBox="0 0 64 64" fill="none" xmlns="http://www.w3.org/2000/svg">
<g clip-path="url(#clip0_6197_15931)">
<g clip-path="url(#clip1_6197_15931)">
<path fill-rule="evenodd" clip-rule="evenodd" d="M0.109314 49.3982C0.109314 48.516 0.824577 47.8008 1.70677 47.8008C2.58895 47.8008 3.30421 48.516 3.30421 49.3982V60.3647C3.30421 60.4821 3.3998 60.5776 3.51712 60.5776H14.4837C15.3658 60.5776 16.0811 61.2928 16.0811 62.1751C16.0811 63.0573 15.3658 63.7725 14.4837 63.7725H1.70677C0.824577 63.7725 0.109314 63.0573 0.109314 62.1751V49.3982ZM22.9923 45.043V23.6363C22.9923 23.519 23.0878 23.4233 23.2052 23.4233H44.6118C44.7292 23.4233 44.8248 23.519 44.8248 23.6363V45.043C44.8248 45.1603 44.7292 45.2559 44.6118 45.2559H23.2052C23.0878 45.2559 22.9923 45.1603 22.9923 45.043ZM49.7478 33.2846L49.3172 33.2334C49.2547 33.2259 49.1979 33.2438 49.1508 33.2858C49.1037 33.3277 49.0793 33.382 49.0793 33.445V48.3722C49.0793 49.0009 48.5698 49.5105 47.9408 49.5105H33.0136C32.9507 49.5105 32.8964 49.535 32.8544 49.5821C32.8126 49.6292 32.7947 49.6861 32.8021 49.7486L32.8533 50.1792C33.2549 53.5661 34.7862 56.7056 37.1969 59.1163C40.0553 61.9747 43.898 63.5664 47.9408 63.5664C51.9837 63.5664 55.8264 61.9747 58.6848 59.1163C61.5431 56.2579 63.1349 52.4152 63.1349 48.3724C63.1349 44.3295 61.5431 40.4868 58.6848 37.6285C56.2742 35.2175 53.135 33.686 49.7478 33.2846ZM18.5248 30.9017C18.642 30.9017 18.7376 30.8061 18.7376 30.6888V20.3072C18.7376 19.6786 19.247 19.1689 19.8757 19.1689H26.2035C26.2794 19.1689 26.3446 19.1324 26.3847 19.068C26.4247 19.0034 26.4279 18.9286 26.394 18.8607L18.1061 2.28485C18.0692 2.21078 17.9983 2.1673 17.9156 2.1673C17.8331 2.1673 17.7622 2.21101 17.7252 2.28485L3.57102 30.5935C3.53705 30.6614 3.54045 30.7359 3.58031 30.8006C3.62017 30.8652 3.6854 30.9017 3.76151 30.9017H18.5248ZM63.4047 14.852C63.4047 15.7342 62.6893 16.4494 61.8072 16.4494C60.925 16.4494 60.2098 15.7342 60.2098 14.852V3.88547C60.2098 3.76814 60.1141 3.67256 59.9968 3.67256H49.0303C48.1481 3.67256 47.4328 2.9573 47.4328 2.07511C47.4328 1.19292 48.1481 0.477661 49.0303 0.477661H61.8072C62.6893 0.477661 63.4047 1.19292 63.4047 2.07511V14.852Z" fill="#808080"/>
</g>
</g>
<defs>
<clipPath id="clip0_6197_15931">
<rect width="63.2949" height="63.2949" fill="white" transform="translate(0.109314 0.477661)"/>
</clipPath>
<clipPath id="clip1_6197_15931">
<rect width="63.2949" height="63.2949" fill="white" transform="translate(0.109314 0.477661)"/>
</clipPath>
</defs>
</svg>
