<svg width="85" height="85" viewBox="0 0 85 85" fill="none" xmlns="http://www.w3.org/2000/svg">
<g clip-path="url(#clip0_6197_16193)">
<g clip-path="url(#clip1_6197_16193)">
<mask id="mask0_6197_16193" style="mask-type:luminance" maskUnits="userSpaceOnUse" x="0" y="0" width="85" height="85">
<path d="M84.8578 0.0849609H0.591858V84.3509H84.8578V0.0849609Z" fill="white"/>
</mask>
<g mask="url(#mask0_6197_16193)">
<path d="M84.7831 43.8264C84.7299 43.7824 84.6526 43.7684 84.5925 43.7887C84.5189 43.8113 84.4515 43.831 84.388 43.8495L84.3569 43.8587C84.2002 43.9045 84.0649 43.9438 83.9307 43.9976C81.8118 44.8395 80.1436 46.2819 78.8308 48.4069C78.5066 48.9319 78.2555 49.4778 78.0554 50.022C78.3834 48.1912 78.4595 47.478 78.5175 45.4294C78.5203 45.3435 78.5203 45.256 78.5203 45.1692C78.5203 44.9322 78.5203 44.7084 78.5721 44.5041C78.6341 44.2621 78.7589 44.0207 78.8798 43.7871C78.9138 43.7209 78.9478 43.6549 78.9759 43.5967C78.9856 43.5854 79.0171 43.5661 79.0293 43.5642C79.6353 43.4717 80.1711 43.2145 80.6679 42.7779C81.1685 42.3358 81.5802 41.7947 81.8916 41.169C83.0098 38.9268 83.5694 36.4484 83.5552 33.8037C83.5539 33.5485 83.5239 33.3002 83.491 33.03C83.4759 32.909 83.4608 32.7852 83.4481 32.657C83.4409 32.5866 83.3976 32.5242 83.3349 32.4937C83.273 32.4637 83.1982 32.4658 83.1357 32.5036C83.0979 32.5273 83.0656 32.5465 83.0362 32.5637C82.9794 32.5974 82.9361 32.6238 82.8951 32.6534C81.9414 33.3371 81.1001 34.1883 80.3943 35.1827C79.2428 36.8079 78.5731 38.6457 78.3927 40.6674C78.3748 40.4421 78.3566 40.2167 78.3385 39.9913L78.3321 39.9096C78.2614 39.0261 78.1883 38.1124 78.1287 37.2139C78.1137 36.9864 78.07 36.7651 78.0277 36.5509C77.9462 36.1393 77.8691 35.7504 77.9924 35.343C78.0206 35.2509 78.0443 35.1581 78.0679 35.0656C78.1262 34.8365 78.4078 34.4836 78.84 34.0976L78.8564 34.0831C79.0158 33.948 79.8349 33.1985 80.2995 31.7163C80.7712 30.2103 80.7355 28.6368 80.7095 27.4878L80.7089 27.4572C80.6742 25.8777 80.5036 24.6875 80.1555 23.5975C80.1105 23.458 80.0571 23.3205 80.0005 23.1761C79.9711 23.1009 79.9411 23.0232 79.9103 22.9419C79.8849 22.873 79.8241 22.823 79.753 22.8112L79.7181 22.8079C79.6564 22.8079 79.5988 22.8356 79.5597 22.8833L79.2216 23.2954C77.6003 25.2728 76.8038 27.5919 76.8536 30.1885C76.8622 30.6458 76.8965 31.1149 76.9571 31.5993C76.5451 30.1772 76.0618 28.7929 75.5122 27.4612C75.5008 27.432 75.4934 27.3959 75.4926 27.3653L75.4888 27.1832C75.4831 26.9205 75.4771 26.6486 75.4884 26.3812C75.4901 26.3368 75.5187 26.2572 75.5785 26.1788C75.6634 26.0668 75.7576 25.9571 75.8552 25.843C76.0215 25.6495 76.1931 25.4498 76.3291 25.2217C76.7672 24.4879 76.9729 23.6211 76.9763 22.4935C76.9822 21.166 76.7775 19.7691 76.3315 18.0969C76.0877 17.1846 75.7198 15.9995 75.0347 14.925C74.9881 14.8529 74.9362 14.7848 74.8809 14.7128C74.856 14.6809 74.8297 14.6469 74.8032 14.6104C74.7643 14.5581 74.7107 14.5278 74.624 14.5278C74.555 14.5329 74.4933 14.5722 74.4589 14.6331C73.5988 16.1854 73.1705 17.8436 73.1502 19.7027C73.1329 21.2528 73.375 22.5866 73.6784 23.6408C72.906 22.2296 72.0477 20.8663 71.1173 19.573L71.096 19.5436C71.0748 19.5155 71.066 19.5018 71.0675 19.5115C71.0089 19.0931 70.9683 18.7584 70.9403 18.4669C70.941 18.4625 70.9464 18.438 70.9899 18.3653C71.0513 18.2606 71.1188 18.1579 71.1904 18.0493C71.334 17.8309 71.4823 17.6049 71.5773 17.3519C71.8642 16.5881 71.9286 15.722 71.7737 14.7048C71.4339 12.4535 70.4414 10.4262 68.7403 8.50696C68.5652 8.3099 68.3718 8.13565 68.1671 7.95146L68.1105 7.90014C68.0304 7.8277 67.9482 7.75356 67.8652 7.6752C67.8125 7.62493 67.7368 7.60613 67.6635 7.62768C67.5942 7.64964 67.5408 7.70709 67.5244 7.77849L67.4872 7.94154C67.4618 8.04969 67.4422 8.13502 67.4276 8.22077C67.1987 9.58731 67.2153 11.051 67.479 12.696C67.7404 14.3274 68.2615 15.7344 69.061 16.9567C67.8621 15.5442 66.696 14.358 65.4773 13.3068C65.4718 13.2995 65.4638 13.2778 65.4631 13.2724C65.5584 12.4518 65.356 11.6788 64.8441 10.9091C64.1718 9.89758 63.2376 9.12666 62.0674 8.61805C61.3673 8.31433 60.6418 8.04546 59.9315 7.78208C59.5912 7.65577 59.251 7.52989 58.9005 7.39492C58.5485 7.25489 58.3979 7.22997 58.3161 7.30557C58.2109 7.40359 58.2363 7.48722 58.2821 7.6393L58.297 7.68893C58.7263 9.13532 59.2961 10.2792 60.0394 11.1859C61.4038 12.8522 62.9995 13.6987 64.9152 13.7735C64.9824 13.7775 65.0356 13.7962 65.0574 13.813C65.3272 14.0149 65.5256 14.1765 65.7012 14.3366C66.2562 14.8439 66.8029 15.3845 67.3376 15.9537C66.5423 15.4595 65.5701 15.2364 64.4751 15.2918C63.8759 15.3219 63.2811 15.4098 62.706 15.4948L62.6841 15.4981C62.5139 15.523 62.3448 15.5477 62.176 15.5716C61.8064 15.6217 61.4339 15.6871 61.1048 15.7446C60.9714 15.7684 60.6532 15.8409 60.5799 15.9953C60.5545 16.0481 60.5566 16.106 60.5854 16.1586C60.6108 16.2044 60.6386 16.2475 60.669 16.2868C61.6188 17.5191 62.7024 18.3308 63.9814 18.7679C65.5411 19.3035 66.9735 19.2593 68.2607 18.6294C68.4575 18.521 68.6948 18.4661 68.9661 18.4661C69.1707 18.4661 69.3243 18.4983 69.3752 18.51C69.4514 18.5227 69.555 18.5653 69.5761 18.5928C70.3766 19.6453 71.1364 20.7693 71.8458 21.9502C71.2463 21.3673 70.4646 20.9742 69.3997 20.7182C68.4664 20.4958 67.5121 20.448 66.5896 20.4016L66.2805 20.386C65.9912 20.3712 65.7018 20.3528 65.4037 20.3341L64.904 20.3032C64.8395 20.3032 64.778 20.3345 64.7403 20.3864C64.6987 20.4423 64.6888 20.515 64.7133 20.5803C64.7334 20.6348 64.7699 20.7308 64.7887 20.763C65.7618 22.3906 66.9044 23.5164 68.2815 24.2049C69.6278 24.8774 70.8442 25.0553 72.0712 24.7619C72.2131 24.7277 72.3776 24.7095 72.5476 24.7095C73.0695 24.7095 73.4334 24.8687 73.5099 25.0162C74.185 26.4087 74.7873 27.8557 75.3069 29.3317C74.762 28.5804 73.9999 27.9702 73.0351 27.5137C72.0767 27.0613 71.0786 26.6478 70.0967 26.2408C69.6748 26.0664 69.251 25.8912 68.8293 25.7121C68.7665 25.6846 68.6923 25.6903 68.6339 25.729C68.5765 25.7672 68.5422 25.831 68.5422 25.8997C68.5422 26.0315 69.9425 29.9179 71.9763 31.4495C72.806 32.0743 73.8278 32.7169 75.1164 32.7472C75.5021 32.755 75.9009 32.8095 76.202 33.1519C76.248 33.2063 76.3091 33.2488 76.3757 33.2714C76.4785 33.3052 76.5068 33.3681 76.5575 33.5828C76.9748 35.335 77.2788 37.141 77.4659 38.975C77.4093 38.7889 77.3436 38.6009 77.2683 38.4106C76.813 37.2563 76.0469 36.2463 74.8574 35.2319C74.2443 34.7068 73.6022 34.1984 72.9812 33.7065L72.9516 33.6833C72.6688 33.4592 72.3866 33.2359 72.1053 33.01C72.0473 32.9632 71.9907 32.9151 71.925 32.8589L71.7495 32.7085C71.688 32.6566 71.5965 32.6458 71.5247 32.6818C71.451 32.719 71.4068 32.7964 71.4125 32.8789C71.4213 33.0029 71.4282 33.1201 71.4348 33.2327L71.4381 33.2853C71.452 33.517 71.4652 33.7356 71.4886 33.9515C71.7087 36.0532 72.3337 37.8081 73.3992 39.3159C74.0589 40.248 75.0051 41.3873 76.4806 41.9261C76.8397 42.0578 77.1001 42.2574 77.3791 42.6157C77.6423 42.951 77.6913 43.2576 77.6854 43.6432C77.6602 45.2588 77.5451 46.8614 77.3421 48.431C77.2946 47.9941 77.1941 47.5445 77.0397 47.0773C76.7201 46.11 76.2221 45.1694 75.5168 44.2021C74.9081 43.3644 74.2747 42.5238 73.6622 41.7104L73.6215 41.6561C73.3786 41.334 73.1359 41.0116 72.8995 40.696C72.8552 40.6311 72.7911 40.6079 72.7541 40.595C72.7018 40.5695 72.6393 40.5669 72.5837 40.5905C72.5293 40.6138 72.4874 40.6596 72.469 40.7158L72.4619 40.7378C72.4517 40.7674 72.4437 40.7935 72.4395 40.8197C72.017 43.3387 72.2763 45.5954 73.2315 47.7199C73.6981 48.7585 74.3239 49.9346 75.4273 50.7807C75.9311 51.167 76.3287 51.709 76.5472 52.3066C76.5934 52.4352 76.5917 52.4909 76.5865 52.5125C76.1194 54.4467 75.5094 56.3124 74.7679 58.0782C74.9589 57.1475 74.9457 56.1701 74.7278 55.1573C74.4183 53.7218 73.8865 52.3308 73.4122 51.1396L73.27 50.7828C73.0476 50.2246 72.8237 49.6619 72.5924 49.0788C72.5631 49.0042 72.4923 48.9533 72.3979 48.9487C72.3236 48.9487 72.2551 48.9911 72.2196 49.06L72.145 49.2002C72.1124 49.2617 72.0817 49.3189 72.0555 49.378C71.1013 51.5311 70.779 53.7383 71.0981 55.9383C71.3262 57.5115 71.7127 58.6378 72.3515 59.5908C72.682 60.0834 72.996 60.632 73.0531 61.3069C73.0666 61.4666 73.0602 61.5767 72.989 61.7019C72.1835 63.1126 71.2803 64.4438 70.2913 65.6807C70.2951 65.674 70.2986 65.6671 70.3024 65.6604C71.0141 64.36 71.0355 62.954 70.9629 61.7498C70.9002 60.7177 70.7819 59.6869 70.668 58.6905L70.6615 58.6327C70.6157 58.2335 70.5701 57.8346 70.5285 57.4348C70.5044 57.2081 70.4775 56.9815 70.4499 56.7515L70.4133 56.4401C70.4053 56.3713 70.3633 56.3117 70.3028 56.2817C70.1905 56.223 70.0087 56.3136 69.8122 56.546C68.4624 58.1425 67.6247 59.9468 67.3223 61.9087C67.0086 63.9429 67.1786 65.6837 67.8427 67.2306C67.8604 67.2718 67.86 67.3558 67.8598 67.384L67.8241 68.274C67.8188 68.338 67.785 68.4102 67.7571 68.4371C66.4091 69.7352 64.9252 70.8636 63.3327 71.8029C64.0864 71.1216 64.6284 70.2326 64.9797 69.1059C65.369 67.8572 65.5688 66.5576 65.7624 65.2975L65.7793 65.1855C65.8479 64.7427 65.9195 64.3009 65.9926 63.8493L66.0752 63.3388C66.087 63.2644 66.0577 63.19 66 63.1455C65.9428 63.0999 65.86 63.0889 65.7941 63.1173L65.722 63.147C65.6452 63.1785 65.5783 63.2066 65.5151 63.2389C62.5045 64.7425 60.5226 68.2495 60.8027 71.5774C60.8466 72.0986 60.7989 72.5882 60.6566 73.0732C60.6432 73.1173 60.6006 73.1652 60.5833 73.1732C59.1534 73.7763 57.7938 74.2162 56.4258 74.5182C56.3555 74.5346 56.2996 74.5848 56.2769 74.6526C56.2538 74.7208 56.2678 74.7949 56.3147 74.8507C56.4633 75.0269 56.5929 75.2163 56.6993 75.4146C56.743 75.4957 56.8472 75.5373 56.9251 75.5171C58.0396 75.2628 59.1251 74.9335 60.1522 74.5377C60.2352 74.5043 60.2986 74.4884 60.3579 74.4982C60.5865 74.5285 60.8279 74.5755 61.0958 74.642C61.1513 74.6556 61.1971 74.6811 61.1979 74.6788C61.7834 75.8459 62.7896 76.5894 64.2751 76.9512C64.5983 77.0287 64.9315 77.0859 65.2656 77.121C65.6155 77.158 66.0055 77.1768 66.4248 77.1768C67.0056 77.1768 67.4198 77.1409 67.4249 77.1405C68.7124 76.9964 69.812 76.7066 70.7859 76.2544C71.1855 76.0692 71.6409 75.8197 71.9909 75.3743C72.0578 75.2889 72.0466 75.1658 71.9653 75.0942C70.976 74.2213 69.9687 73.587 68.8854 73.1553C67.2804 72.5174 65.8184 72.3447 64.3853 72.6204C64.1711 72.662 63.962 72.7143 63.7589 72.7745C65.0994 71.9732 66.383 71.0313 67.5951 69.9584C67.6183 69.9372 67.6566 69.9187 67.6864 69.9134C67.8847 69.8804 68.1481 69.8399 68.4176 69.8205C68.4425 69.8205 68.4742 69.8325 68.4778 69.8338C69.2081 70.6512 70.1491 71.0485 71.3545 71.0485C71.4159 71.0485 71.4776 71.0472 71.5391 71.0451C72.8497 71.0029 74.1672 70.6427 75.4558 69.9742C76.3923 69.4857 77.3686 68.9169 78.1601 68.0687C78.3357 67.8801 78.4925 67.6668 78.6308 67.4785L78.6442 67.4602C78.7055 67.3771 78.7674 67.2935 78.831 67.2109C78.8656 67.1663 78.8802 67.1089 78.8711 67.051C78.8614 66.9953 78.8291 66.9457 78.774 66.9098C78.76 66.9022 78.4248 66.7224 78.1187 66.6039C76.0696 65.8121 74.0008 65.731 72.0272 66.367C71.3811 66.5746 70.7731 66.8863 70.181 67.3172C71.2759 66.0444 72.2897 64.6491 73.2102 63.1478C73.2201 63.132 73.2464 63.0891 73.2548 63.0813C73.3353 63.03 73.4176 62.9814 73.4998 62.9335C73.6469 62.8471 73.7995 62.7578 73.9427 62.6513C74.0635 62.5611 74.0975 62.5588 74.2195 62.6374C74.3924 62.7495 74.5933 62.8078 74.7683 62.8536C75.7927 63.116 76.8254 62.9852 77.9676 62.4489C79.0109 61.9598 79.8131 61.1865 80.5249 60.424C81.5603 59.3118 82.2368 58.3083 82.6541 57.2658C82.7418 57.0469 82.8043 56.8208 82.8693 56.5842C82.8962 56.4849 82.9237 56.3857 82.9528 56.2881C82.9847 56.1833 82.9289 56.0724 82.8254 56.0359L82.7397 56.0293C82.3175 56.0293 78.5511 56.0913 76.3482 58.2287C75.8689 58.6938 75.4394 59.188 75.0471 59.7291C75.9185 57.8836 76.6576 55.9385 77.2532 53.9195L77.2619 53.89C77.2691 53.8653 77.2799 53.8279 77.287 53.8178L77.8632 53.0265C77.8848 52.9948 77.8873 52.9948 77.9211 52.9948C77.9361 52.9948 77.9525 52.9959 77.9714 52.997L78.0945 53.0044C78.5232 53.0309 78.7757 53.0271 78.9833 52.9946C79.8036 52.8651 80.5441 52.452 81.2468 51.7313C82.8903 50.0459 84.0216 47.9431 84.7051 45.3033C84.7783 45.0205 84.7988 44.735 84.8207 44.4321C84.8305 44.2948 84.8413 44.1533 84.8568 44.0071C84.8634 43.9371 84.836 43.8701 84.7831 43.8264Z" fill="#0C0F06"/>
<path d="M29.0228 74.5164C27.656 74.2145 26.2966 73.7746 24.8663 73.1716C24.8492 73.1636 24.8068 73.1156 24.7934 73.0725C24.6509 72.5865 24.6032 72.0969 24.6471 71.5756C24.9272 68.2476 22.9453 64.7408 19.9353 63.2374C19.8713 63.2048 19.8046 63.1768 19.7277 63.1453L19.6563 63.1157C19.5885 63.0868 19.5059 63.0989 19.4512 63.1428C19.392 63.1884 19.3628 63.2628 19.3748 63.3373L19.4571 63.8476C19.5302 64.2991 19.6019 64.741 19.6704 65.1833L19.6878 65.299C19.8811 66.556 20.0808 67.8558 20.4701 69.1045C20.8214 70.231 21.3633 71.12 22.1172 71.8012C20.5246 70.8622 19.0406 69.7336 17.6929 68.4357C17.6646 68.4085 17.631 68.3363 17.6261 68.2767L17.59 67.386C17.5898 67.3544 17.5894 67.2702 17.6074 67.2286C18.2712 65.6821 18.4412 63.9414 18.1275 61.9071C17.8251 59.9452 16.9874 58.1411 15.6376 56.5444C15.4796 56.3576 15.3402 56.263 15.2232 56.263C15.1946 56.263 15.1689 56.2687 15.1486 56.2792C15.0866 56.3101 15.0444 56.3698 15.0362 56.4389L15.0001 56.7496C14.9723 56.9802 14.9454 57.2067 14.9213 57.4334C14.8797 57.8331 14.8341 58.2321 14.7883 58.6313L14.7817 58.6889C14.6677 59.6857 14.5494 60.7163 14.4869 61.7484C14.4142 62.9522 14.4357 64.3583 15.1474 65.659C15.1511 65.6655 15.1545 65.6724 15.1583 65.679C14.1692 64.4422 13.2663 63.1111 12.4607 61.7006C12.3895 61.5751 12.3834 61.4651 12.3967 61.3055C12.454 60.6302 12.7678 60.0815 13.0984 59.5893C13.7368 58.6363 14.1234 57.5099 14.3517 55.9369C14.6708 53.7368 14.3485 51.5299 13.3943 49.3768C13.3681 49.3175 13.3374 49.2602 13.3048 49.1988L13.2302 49.058C13.1945 48.9895 13.1182 48.9442 13.0378 48.9479C12.9575 48.9521 12.8867 49.0029 12.8576 49.0769C12.6261 49.6606 12.4022 50.2231 12.1798 50.7814L12.0376 51.138C11.5633 52.3296 11.0312 53.7206 10.722 55.1557C10.5041 56.1685 10.4908 57.146 10.6819 58.0766C9.94011 56.3111 9.33035 54.4455 8.86335 52.5109C8.85808 52.4895 8.85639 52.4336 8.90264 52.305C9.12104 51.7073 9.51875 51.1653 10.0227 50.7791C11.1259 49.9329 11.7516 48.7569 12.2183 47.7181C13.1735 45.5938 13.4327 43.3369 13.0103 40.8182C13.0058 40.7919 12.9978 40.7656 12.9884 40.7371L12.9808 40.7143C12.9623 40.658 12.9205 40.6123 12.8652 40.5885C12.8111 40.5658 12.7431 40.57 12.7011 40.5908C12.6589 40.6062 12.5948 40.6296 12.5532 40.6906C12.3141 41.01 12.0714 41.3323 11.8285 41.6544L11.7878 41.7087C11.1753 42.5221 10.5419 43.3627 9.93315 44.2002C9.22791 45.1677 8.72987 46.1083 8.41031 47.0756C8.25612 47.5428 8.15537 47.9925 8.10785 48.4293C7.90487 46.8597 7.78976 45.2573 7.76463 43.6415C7.75871 43.2558 7.80772 42.9494 8.0711 42.6138C8.3499 42.256 8.61032 42.0562 8.96938 41.9244C10.4447 41.3853 11.3912 40.2462 12.0508 39.3141C13.1163 37.8063 13.7413 36.0518 13.9614 33.9502C13.9848 33.734 13.9982 33.5152 14.0119 33.2837L14.0152 33.2311C14.0218 33.1185 14.0287 33.0013 14.0377 32.8771C14.0432 32.7947 13.999 32.7174 13.9253 32.68C13.8539 32.6441 13.7624 32.6547 13.7003 32.7073L13.5252 32.8573C13.4593 32.9134 13.4029 32.9616 13.3445 33.0084C13.0633 33.2343 12.7812 33.4577 12.4983 33.6818L12.4687 33.705C11.848 34.1967 11.2059 34.7051 10.5928 35.2302C9.403 36.2449 8.63694 37.2549 8.18178 38.4091C8.10658 38.5995 8.04069 38.7876 7.98408 38.9739C8.17121 37.1398 8.47515 35.3334 8.89251 33.581C8.9432 33.3667 8.9715 33.3037 9.07563 33.2695C9.14111 33.2473 9.20214 33.2047 9.24671 33.1519C9.54937 32.8078 9.94793 32.7533 10.334 32.7455C11.6224 32.7153 12.6442 32.0725 13.4737 31.4478C15.5075 29.9161 16.9078 26.0297 16.9078 25.898C16.9078 25.8294 16.8735 25.7653 16.8155 25.7267C16.7583 25.6889 16.681 25.6836 16.6226 25.7096C16.199 25.8893 15.7752 26.0644 15.3366 26.2459C14.3714 26.6461 13.3733 27.0597 12.4149 27.5119C11.4503 27.9683 10.688 28.5787 10.1431 29.3298C10.6625 27.854 11.2646 26.4072 11.9388 25.0168C12.0163 24.8669 12.3805 24.7076 12.9026 24.7076C13.0724 24.7076 13.2369 24.7257 13.379 24.7599C14.6058 25.0539 15.8222 24.8757 17.1685 24.2031C18.5458 23.5145 19.6884 22.3887 20.6617 20.7605C20.6803 20.729 20.7168 20.6329 20.7365 20.579C20.7612 20.5132 20.7512 20.4405 20.7103 20.3854C20.6722 20.3329 20.6114 20.3016 20.5339 20.3016H20.5323L20.046 20.3323C19.748 20.3511 19.4586 20.3695 19.1693 20.3843L18.8602 20.3999C17.9377 20.4464 16.9834 20.4941 16.0498 20.7165C14.9851 20.9725 14.2035 21.3656 13.604 21.9485C14.3134 20.7676 15.0732 19.6439 15.8735 18.5915C15.895 18.5637 15.9983 18.521 16.083 18.5068C16.1253 18.4969 16.279 18.4645 16.4835 18.4645C16.7547 18.4645 16.992 18.5197 17.1933 18.6303C18.4723 19.2558 19.9085 19.3022 21.4679 18.7666C22.747 18.3296 23.8303 17.5179 24.7799 16.2859C24.8108 16.2462 24.8387 16.2029 24.864 16.1573C24.8929 16.1047 24.8948 16.0468 24.8694 15.994C24.7959 15.8399 24.4779 15.7674 24.3439 15.7433C24.0153 15.6859 23.6429 15.6204 23.2738 15.5703C23.1046 15.5466 22.9352 15.522 22.7654 15.4968L22.7436 15.4934C22.1683 15.4085 21.5735 15.3207 20.9742 15.2905C19.8793 15.2345 18.9072 15.4579 18.1115 15.9526C18.6465 15.3831 19.1932 14.8429 19.7482 14.3354C19.9238 14.1753 20.1222 14.0139 20.3928 13.8114C20.4138 13.7953 20.467 13.7765 20.5323 13.7727C22.4498 13.6977 24.0455 12.8512 25.41 11.1851C26.1532 10.2782 26.7231 9.13425 27.1524 7.68787L27.1673 7.63824C27.2131 7.48617 27.2385 7.40252 27.133 7.30452C27.0517 7.22891 26.9085 7.2513 26.5363 7.39872C26.1984 7.52862 25.8584 7.65471 25.5092 7.78419C24.8078 8.04419 24.0823 8.31306 23.3821 8.61679C22.212 9.12539 21.2776 9.89631 20.6053 10.9078C20.0933 11.6774 19.891 12.4507 19.9862 13.2676C19.9856 13.2768 19.9776 13.2985 19.9763 13.301C18.7549 14.3556 17.5873 15.5428 16.3885 16.9559C17.1879 15.7336 17.7089 14.3262 17.9704 12.6948C18.234 11.0502 18.2507 9.58626 18.0218 8.2197C18.0071 8.13416 17.9875 8.04862 17.9624 7.94154L17.925 7.77658C17.9081 7.70583 17.8549 7.64859 17.785 7.62662C17.715 7.60592 17.6367 7.6243 17.5845 7.67394C17.5009 7.75271 17.419 7.82707 17.3389 7.8993L17.2825 7.9502C17.0777 8.13481 16.8842 8.30905 16.709 8.50611C15.0078 10.4254 14.0154 12.4526 13.6756 14.7037C13.5208 15.7212 13.5851 16.5873 13.8721 17.3511C13.9671 17.6041 14.1154 17.8301 14.263 18.0544C14.3306 18.1569 14.3982 18.2597 14.4601 18.3653C14.5057 18.4412 14.5095 18.4607 14.5092 18.4572C14.4812 18.7582 14.4409 19.0936 14.3863 19.4962C14.384 19.5012 14.3764 19.513 14.3521 19.5451L14.3325 19.5724C13.4021 20.8656 12.5437 22.229 11.7713 23.6402C12.075 22.5862 12.3169 21.2522 12.2998 19.7021C12.279 17.8428 11.851 16.1845 10.9905 14.6319C10.9565 14.5715 10.8948 14.5323 10.8084 14.5263C10.7457 14.5263 10.6853 14.5573 10.6458 14.6103C10.62 14.6462 10.5938 14.6801 10.5689 14.7122C10.5133 14.784 10.4614 14.852 10.4149 14.9246C9.72975 15.9991 9.36224 17.1838 9.11829 18.096C8.67242 19.769 8.46755 21.166 8.47345 22.4926C8.47684 23.6202 8.68235 24.487 9.12041 25.2207C9.25663 25.4489 9.42814 25.6487 9.60049 25.8498C9.69194 25.9565 9.78593 26.0661 9.87105 26.1785C9.93061 26.2566 9.95934 26.3362 9.96103 26.3806C9.97222 26.648 9.96631 26.9198 9.9606 27.1826L9.95659 27.3642C9.95596 27.3955 9.94877 27.4314 9.93801 27.4589C9.388 28.7913 8.90454 30.1763 8.49226 31.5987C8.55288 31.1143 8.58709 30.6454 8.59575 30.1879C8.6456 27.5913 7.84912 25.2724 6.22785 23.2948L5.8899 22.8831C5.85083 22.8348 5.79297 22.8073 5.73128 22.8073L5.69749 22.8102C5.62526 22.8224 5.56443 22.8724 5.53929 22.9405C5.50846 23.0227 5.47825 23.1002 5.4489 23.1752C5.39229 23.3202 5.33886 23.4574 5.29366 23.5971C4.94579 24.6866 4.77513 25.8771 4.74049 27.4561L4.73985 27.4869C4.71388 28.6358 4.67818 30.2094 5.15003 31.7154C5.61449 33.1979 6.43357 33.947 6.5924 34.0817L6.6093 34.0968C7.04165 34.4828 7.32319 34.8356 7.38149 35.0648C7.40493 35.1573 7.4288 35.25 7.45668 35.3417C7.58003 35.7496 7.50294 36.1382 7.41972 36.5579C7.37832 36.7697 7.33523 36.9885 7.32024 37.2131C7.26068 38.1116 7.1876 39.0252 7.11684 39.9088L7.11051 39.9905C7.09234 40.2159 7.07418 40.4412 7.05623 40.6666C6.87585 38.6449 6.2063 36.8071 5.05435 35.1819C4.3489 34.1874 3.50785 33.3366 2.55401 32.6525C2.51283 32.623 2.46954 32.5966 2.41166 32.5621C2.38356 32.5459 2.35104 32.5264 2.31155 32.5018C2.25198 32.4661 2.17552 32.4629 2.11406 32.4929C2.05112 32.5235 2.00782 32.5858 2.00064 32.6564C1.98776 32.7842 1.97276 32.9079 1.95692 33.0363C1.92503 33.2992 1.89482 33.5476 1.89356 33.8028C1.8794 36.4476 2.43891 38.926 3.55706 41.1682C3.8686 41.7938 4.28025 42.335 4.78105 42.7773C5.27761 43.2134 5.81345 43.4707 6.41815 43.5632C6.43146 43.5655 6.46314 43.5848 6.468 43.5885C6.50074 43.6542 6.53474 43.7201 6.56875 43.7861C6.68956 44.0196 6.81438 44.261 6.87648 44.503C6.92823 44.7077 6.92823 44.9314 6.92823 45.1684C6.92823 45.2552 6.92823 45.3426 6.93098 45.4284C6.98906 47.4771 7.06531 48.1906 7.39311 50.0212C7.19309 49.4769 6.94195 48.9311 6.61775 48.406C5.30484 46.2811 3.6369 44.8386 1.51865 43.997C1.3839 43.9427 1.24872 43.9036 1.09201 43.858L1.06075 43.8487C0.997171 43.8302 0.929794 43.8103 0.857771 43.7884C0.792717 43.767 0.718581 43.7815 0.665567 43.8254C0.612764 43.8693 0.585095 43.9361 0.592065 44.0059C0.607695 44.1511 0.618467 44.2925 0.628394 44.4304C0.650149 44.7329 0.670636 45.0184 0.743927 45.301C1.42741 47.941 2.55867 50.0436 4.20211 51.7293C4.90481 52.45 5.64532 52.8631 6.46588 52.9925C6.67287 53.0249 6.9259 53.0289 7.35424 53.0022L7.47759 52.9948C7.49639 52.9938 7.51287 52.9927 7.52786 52.9927C7.56166 52.9927 7.5644 52.9927 7.58784 53.0274L8.16171 53.8154C8.1691 53.8258 8.17987 53.8631 8.18727 53.8889L8.19571 53.9172C8.79134 55.9365 9.53037 57.8812 10.4018 59.7271C10.0096 59.1856 9.57979 58.6914 9.10076 58.2266C6.89782 56.0891 3.13148 56.0273 2.70926 56.0273L2.65667 56.0277L2.62351 56.0338C2.52001 56.0705 2.46404 56.1813 2.49593 56.2853C2.52529 56.3836 2.55275 56.4828 2.58422 56.5994C2.64442 56.8184 2.70693 57.0447 2.79459 57.2634C3.21194 58.3064 3.88846 59.3097 4.92404 60.4219C5.63561 61.1844 6.43779 61.9577 7.48097 62.4466C8.62342 62.9831 9.65498 63.114 10.6808 62.8513C10.8553 62.8055 11.056 62.7474 11.2286 62.6354C11.3515 62.5566 11.385 62.5592 11.5058 62.6492C11.649 62.7556 11.8014 62.845 11.9491 62.9316C12.0309 62.9795 12.1132 63.0279 12.1901 63.0764C12.2025 63.0868 12.2286 63.1297 12.2383 63.1455C13.1588 64.6468 14.1728 66.0421 15.2677 67.3149C14.6755 66.884 14.0674 66.5722 13.4216 66.3646C11.4478 65.7287 9.37892 65.8096 7.32996 66.6018C7.02412 66.7203 6.68892 66.8998 6.66654 66.9125C6.61965 66.9433 6.58733 66.9932 6.5772 67.0504C6.56832 67.1065 6.5829 67.1641 6.61711 67.208C6.68111 67.2912 6.74299 67.3748 6.80424 67.4578L6.81777 67.4761C6.95611 67.6644 7.11282 67.8775 7.28856 68.0663C8.07998 68.9148 9.05599 69.4836 9.99292 69.9719C11.2813 70.6403 12.5988 71.0005 13.9093 71.0427C13.9709 71.0448 14.0326 71.0461 14.094 71.0461C15.2995 71.0461 16.2404 70.6489 16.9657 69.8363C16.9746 69.8299 17.006 69.8179 17.0233 69.8177C17.3005 69.8376 17.5638 69.8779 17.7606 69.9106C17.7917 69.9162 17.83 69.9347 17.8539 69.9563C19.0655 71.029 20.3489 71.9706 21.6894 72.772C21.4863 72.7117 21.277 72.6594 21.0628 72.6173C19.6301 72.3419 18.1681 72.5147 16.5627 73.1525C15.4796 73.5843 14.4723 74.2185 13.4832 75.0915C13.4017 75.1631 13.3903 75.2862 13.4574 75.3716C13.8074 75.817 14.2628 76.0664 14.6622 76.2514C15.6363 76.7041 16.7359 76.9939 18.0249 77.1379C18.0287 77.1381 18.4429 77.174 19.0237 77.174C19.443 77.174 19.8331 77.1553 20.1827 77.1183C20.5168 77.0832 20.85 77.026 21.1734 76.9483C22.6587 76.5867 23.6652 75.8432 24.2418 74.6889C24.2521 74.679 24.2964 74.6532 24.3527 74.6395C24.6206 74.5729 24.8618 74.5261 25.0913 74.4954C25.1453 74.4868 25.2127 74.5013 25.2976 74.5355C26.3232 74.9307 27.4087 75.26 28.5215 75.5139C28.5372 75.5176 28.5534 75.5197 28.5697 75.5197C28.6444 75.5197 28.7133 75.4784 28.7497 75.4113C28.8558 75.2136 28.9854 75.0238 29.1342 74.8475C29.1809 74.792 29.1949 74.7181 29.1718 74.6496C29.1499 74.5833 29.0941 74.533 29.0228 74.5164Z" fill="#0C0F06"/>
<path d="M52.7432 47.2578L61.2297 38.9854C61.5174 38.7049 61.6212 38.2851 61.4968 37.903C61.3727 37.5205 61.0423 37.2416 60.6444 37.184L48.9173 35.481L43.6719 24.8542C43.4939 24.4938 43.1269 24.2656 42.7249 24.2656C42.323 24.2656 41.9557 24.4942 41.7781 24.8542L36.5345 35.481L24.8054 37.184C24.4077 37.2416 24.0772 37.5207 23.953 37.903C23.8286 38.2851 23.9323 38.7049 24.2202 38.9854L32.7067 47.2578L30.7044 58.9376C30.6364 59.3336 30.7993 59.7341 31.1245 59.9703C31.4494 60.2066 31.8802 60.2378 32.2365 60.0507L42.7253 54.537L53.2141 60.0507C53.3685 60.1321 53.5373 60.172 53.7053 60.172C53.9243 60.172 54.142 60.1039 54.326 59.9703C54.6513 59.7343 54.8143 59.3336 54.7461 58.9376L52.7432 47.2578Z" fill="#0C0F06"/>
</g>
</g>
</g>
<defs>
<clipPath id="clip0_6197_16193">
<rect width="84.266" height="84.266" fill="white" transform="translate(0.591858 0.0849609)"/>
</clipPath>
<clipPath id="clip1_6197_16193">
<rect width="84.266" height="84.266" fill="white" transform="translate(0.591858 0.0849609)"/>
</clipPath>
</defs>
</svg>
