<svg width="47" height="72" viewBox="0 0 47 72" fill="none" xmlns="http://www.w3.org/2000/svg">
<rect x="0.678457" y="0.538381" width="45.293" height="70.5728" rx="22.6465" fill="#0C0F06"/>
<rect x="0.678457" y="0.538381" width="45.293" height="70.5728" rx="22.6465" stroke="#3B4031" stroke-width="1.05332"/>
<g clip-path="url(#clip0_6197_16718)">
<g clip-path="url(#clip1_6197_16718)">
<g clip-path="url(#clip2_6197_16718)">
<path fill-rule="evenodd" clip-rule="evenodd" d="M24.4859 52.679H22.1084V25.8473C22.0353 25.9434 21.9601 26.0388 21.8829 26.1334C20.2107 28.1809 17.5869 29.8076 13.7495 29.8077H12.7919L12.7919 27.493H13.7495C16.7923 27.493 18.7553 26.2414 20.0216 24.691C21.3228 23.0976 21.9012 21.1625 22.0266 19.903L22.1193 18.9727L23.1424 19.101H23.508L24.531 18.9727L24.6237 19.903C24.7491 21.1625 25.3275 23.0976 26.6288 24.691C27.8951 26.2414 29.8581 27.493 32.9009 27.493H33.8584V29.8077H32.9008C29.0634 29.8077 26.4396 28.1809 24.7675 26.1334C24.6703 26.0145 24.5766 25.8943 24.4859 25.7731V52.679Z" fill="#BAFF39"/>
</g>
</g>
</g>
<defs>
<clipPath id="clip0_6197_16718">
<rect width="21.0665" height="33.7064" fill="white" transform="translate(12.7919 18.9727)"/>
</clipPath>
<clipPath id="clip1_6197_16718">
<rect width="21.0665" height="33.7064" fill="white" transform="translate(12.7919 18.9727)"/>
</clipPath>
<clipPath id="clip2_6197_16718">
<rect width="21.0665" height="33.7064" fill="white" transform="translate(12.7919 18.9727)"/>
</clipPath>
</defs>
</svg>
