<svg width="27" height="28" viewBox="0 0 27 28" fill="none" xmlns="http://www.w3.org/2000/svg">
<g clip-path="url(#clip0_6197_16547)">
<path fill-rule="evenodd" clip-rule="evenodd" d="M2.00579 26.2312L0.358276 24.5837L18.6196 6.32231C18.5036 6.33704 18.3865 6.34988 18.2687 6.36073C15.7165 6.59544 12.7911 5.88438 10.1319 3.22521L9.46833 2.56165L11.0436 0.986328L11.7072 1.64989C13.8157 3.75845 16.0278 4.26692 17.9606 4.08918C19.9467 3.90651 21.6645 2.99028 22.6087 2.22001L23.3061 1.65103L23.9277 2.44732L24.181 2.7007L24.9773 3.32226L24.4083 4.01967C23.638 4.96381 22.7218 6.68161 22.5392 8.66777C22.3614 10.6005 22.8699 12.8126 24.9785 14.9211L25.6419 15.5846L24.0667 17.16L23.4031 16.4964C20.7439 13.8373 20.0329 10.9119 20.2676 8.35963C20.2813 8.21142 20.298 8.06461 20.3177 7.91929L2.00579 26.2312Z" fill="#BAFF39"/>
</g>
<defs>
<clipPath id="clip0_6197_16547">
<rect width="26.3331" height="26.3331" fill="white" transform="translate(0.0310059 0.825317)"/>
</clipPath>
</defs>
</svg>
