<svg width="64" height="64" viewBox="0 0 64 64" fill="none" xmlns="http://www.w3.org/2000/svg">
<g clip-path="url(#clip0_6197_15969)">
<g clip-path="url(#clip1_6197_15969)">
<g clip-path="url(#clip2_6197_15969)">
<path d="M45.3196 3.07614C45.3196 1.9664 46.2192 1.06677 47.329 1.06677H61.3946C62.5043 1.06677 63.4039 1.9664 63.4039 3.07614V17.1416C63.4039 18.2514 62.5043 19.151 61.3946 19.151H45.3196V3.07614Z" fill="#808080"/>
<path fill-rule="evenodd" clip-rule="evenodd" d="M61.3946 2.11895H47.329C46.8003 2.11895 46.3718 2.5475 46.3718 3.07614V18.0989H61.3946C61.9232 18.0989 62.3517 17.6703 62.3517 17.1416V3.07614C62.3517 2.5475 61.9232 2.11895 61.3946 2.11895ZM47.329 1.06677C46.2192 1.06677 45.3196 1.9664 45.3196 3.07614V19.151H61.3946C62.5043 19.151 63.4039 18.2514 63.4039 17.1416V3.07614C63.4039 1.9664 62.5043 1.06677 61.3946 1.06677H47.329Z" fill="#808080"/>
<path fill-rule="evenodd" clip-rule="evenodd" d="M45.3198 19.1511H20.2028C19.6479 19.1511 19.1981 19.6009 19.1981 20.1558V45.2728H45.3198V19.1511ZM20.2028 18.1464C19.093 18.1464 18.1934 19.046 18.1934 20.1558V46.2775H46.3245V18.1464H20.2028Z" fill="#808080"/>
<path d="M1.11456 47.282C1.11456 46.1723 2.01419 45.2727 3.12393 45.2727H19.1988V61.3476C19.1988 62.4574 18.2991 63.3569 17.1894 63.3569H3.12393C2.01419 63.3569 1.11456 62.4574 1.11456 61.3476V47.282Z" fill="#808080"/>
<path fill-rule="evenodd" clip-rule="evenodd" d="M18.1466 46.3249H3.12393C2.59529 46.3249 2.16674 46.7534 2.16674 47.282V61.3476C2.16674 61.8762 2.59529 62.3048 3.12393 62.3048H17.1894C17.7181 62.3048 18.1466 61.8762 18.1466 61.3476V46.3249ZM3.12393 45.2727C2.01419 45.2727 1.11456 46.1723 1.11456 47.282V61.3476C1.11456 62.4574 2.01419 63.3569 3.12393 63.3569H17.1894C18.2991 63.3569 19.1988 62.4574 19.1988 61.3476V45.2727H3.12393Z" fill="#808080"/>
<path d="M45.3196 45.2727H61.3946C62.5043 45.2727 63.4039 46.1723 63.4039 47.282V61.3476C63.4039 62.4574 62.5043 63.3569 61.3946 63.3569H47.329C46.2192 63.3569 45.3196 62.4574 45.3196 61.3476V45.2727Z" fill="#808080"/>
<path fill-rule="evenodd" clip-rule="evenodd" d="M61.3946 46.3249H46.3718V61.3476C46.3718 61.8762 46.8003 62.3048 47.329 62.3048H61.3946C61.9232 62.3048 62.3517 61.8762 62.3517 61.3476V47.282C62.3517 46.7534 61.9232 46.3249 61.3946 46.3249ZM45.3196 45.2727V61.3476C45.3196 62.4574 46.2192 63.3569 47.329 63.3569H61.3946C62.5043 63.3569 63.4039 62.4574 63.4039 61.3476V47.282C63.4039 46.1723 62.5043 45.2727 61.3946 45.2727H45.3196Z" fill="#808080"/>
<path d="M0.109253 2.0715C0.109253 0.961757 1.00887 0.0621338 2.11862 0.0621338H16.3018C18.0918 0.0621338 18.9883 2.2265 17.7225 3.49233L3.53945 17.6754C2.27362 18.9412 0.109253 18.0447 0.109253 16.2546V2.0715Z" fill="#808080"/>
<path fill-rule="evenodd" clip-rule="evenodd" d="M16.3018 1.23122H2.11862C1.65455 1.23122 1.27834 1.60742 1.27834 2.0715V16.2546C1.27834 17.0032 2.18344 17.3781 2.71278 16.8487L16.8958 2.66566C17.4252 2.13632 17.0503 1.23122 16.3018 1.23122ZM2.11862 0.0621338C1.00887 0.0621338 0.109253 0.961757 0.109253 2.0715V16.2546C0.109253 18.0447 2.27362 18.9412 3.53945 17.6754L17.7225 3.49233C18.9883 2.2265 18.0918 0.0621338 16.3018 0.0621338H2.11862Z" fill="#808080"/>
<path d="M30.9109 38.2091C30.3177 38.069 29.9491 37.4633 30.0842 36.8546L32.2868 27.0611C32.4248 26.454 33.0166 26.0697 33.6069 26.2143C34.2001 26.3545 34.5687 26.9602 34.4336 27.5688L32.231 37.3623C32.0916 37.9861 31.4822 38.3523 30.9109 38.2091Z" fill="#808080"/>
<path fill-rule="evenodd" clip-rule="evenodd" d="M34.4336 27.5688L32.231 37.3623C32.0916 37.9861 31.4822 38.3523 30.9109 38.2091C30.3177 38.069 29.9491 37.4633 30.0842 36.8546L32.2868 27.0611C32.4248 26.454 33.0166 26.0697 33.6069 26.2143C34.2001 26.3545 34.5687 26.9602 34.4336 27.5688Z" fill="#808080"/>
<path d="M37.0315 36.7326C36.7304 36.7326 36.4309 36.6062 36.2121 36.359C35.8053 35.8935 35.8421 35.1808 36.2944 34.7619L39.0564 32.2126L36.2944 29.6633C35.8421 29.246 35.8053 28.5318 36.2121 28.0662C36.6204 27.6022 37.3163 27.566 37.7686 27.9818L41.4396 31.3719C41.6716 31.5874 41.8037 31.8917 41.8037 32.2126C41.8037 32.5335 41.6716 32.8379 41.4396 33.0533L37.7686 36.4434C37.5571 36.6378 37.2944 36.7326 37.0315 36.7326Z" fill="#808080"/>
<path fill-rule="evenodd" clip-rule="evenodd" d="M36.2944 34.7619C35.8421 35.1808 35.8053 35.8935 36.2121 36.359C36.4309 36.6062 36.7304 36.7326 37.0315 36.7326C37.2944 36.7326 37.5571 36.6378 37.7686 36.4434L41.4396 33.0533C41.6716 32.8379 41.8037 32.5335 41.8037 32.2126C41.8037 31.8917 41.6716 31.5874 41.4396 31.3719L37.7686 27.9818C37.3163 27.566 36.6204 27.6022 36.2121 28.0662C35.8053 28.5318 35.8421 29.246 36.2944 29.6633L39.0564 32.2126L36.2944 34.7619Z" fill="#808080"/>
<path d="M27.4869 36.7324C27.2241 36.7324 26.9613 36.6374 26.7498 36.4431L23.0789 33.0529C22.8469 32.8375 22.7147 32.5331 22.7147 32.2122C22.7147 31.8913 22.8469 31.587 23.0789 31.3715L26.7498 27.9814C27.2021 27.5656 27.8981 27.6033 28.3063 28.0658C28.713 28.5314 28.6763 29.2441 28.2241 29.6629L25.4621 32.2122L28.2241 34.7616C28.6763 35.179 28.713 35.8931 28.3063 36.3586C28.0875 36.6058 27.7879 36.7324 27.4869 36.7324Z" fill="#808080"/>
<path fill-rule="evenodd" clip-rule="evenodd" d="M25.4621 32.2122L28.2241 34.7616C28.6763 35.179 28.713 35.8931 28.3063 36.3586C28.0875 36.6058 27.7879 36.7324 27.4869 36.7324C27.2241 36.7324 26.9613 36.6374 26.7498 36.4431L23.0789 33.0529C22.8469 32.8375 22.7147 32.5331 22.7147 32.2122C22.7147 31.8913 22.8469 31.587 23.0789 31.3715L26.7498 27.9814C27.2021 27.5656 27.8981 27.6033 28.3063 28.0658C28.713 28.5314 28.6763 29.2441 28.2241 29.6629L25.4621 32.2122Z" fill="#808080"/>
</g>
</g>
</g>
<defs>
<clipPath id="clip0_6197_15969">
<rect width="63.2949" height="63.2949" fill="white" transform="translate(0.109253 0.0621338)"/>
</clipPath>
<clipPath id="clip1_6197_15969">
<rect width="63.2949" height="63.2949" fill="white" transform="translate(0.109253 0.0621338)"/>
</clipPath>
<clipPath id="clip2_6197_15969">
<rect width="63.2949" height="63.2949" fill="white" transform="translate(0.109253 0.0621338)"/>
</clipPath>
</defs>
</svg>
