<svg width="64" height="64" viewBox="0 0 64 64" fill="none" xmlns="http://www.w3.org/2000/svg">
<g clip-path="url(#clip0_6197_16001)">
<g clip-path="url(#clip1_6197_16001)">
<path d="M32.5371 39.8992C32.163 39.3432 31.317 39.3432 30.9429 39.8992L23.9804 50.2454C23.8338 50.4634 23.7906 50.7311 23.8616 50.9816L25.6951 57.4461L24.4895 62.0834C24.3395 62.6596 24.7929 63.2178 25.4105 63.2178H38.0695C38.6872 63.2178 39.1403 62.6596 38.9905 62.0834L37.7848 57.4461L39.6183 50.9816C39.6894 50.7312 39.6462 50.4635 39.4995 50.2454L32.5371 39.8992ZM26.6265 61.3919L27.4176 58.3489H36.0622L36.8534 61.3919H26.6265Z" fill="#808080"/>
<path d="M0.0925293 63.218C0.0925297 59.062 0.911115 54.9466 2.50155 51.107C4.09198 47.2674 6.42311 43.7786 9.36185 40.8399C12.3006 37.9011 15.7894 35.57 19.629 33.9795C23.4687 32.3891 27.584 31.5706 31.74 31.5706C35.896 31.5706 40.0113 32.3891 43.8509 33.9795C47.6906 35.57 51.1793 37.9011 54.1181 40.8399C57.0568 43.7786 59.3879 47.2674 60.9783 51.107C62.5688 54.9466 63.3874 59.062 63.3874 63.218H59.5897C59.5897 59.5607 58.8693 55.9392 57.4697 52.5603C56.0702 49.1815 54.0188 46.1114 51.4327 43.5253C48.8466 40.9392 45.7765 38.8877 42.3976 37.4881C39.0187 36.0886 35.3972 35.3683 31.74 35.3683C28.0827 35.3683 24.4612 36.0886 21.0823 37.4881C17.7034 38.8877 14.6333 40.9391 12.0472 43.5252C9.46114 46.1113 7.40974 49.1815 6.01015 52.5603C4.61058 55.9392 3.89022 59.5607 3.89022 63.218H0.0925293Z" fill="#808080"/>
<path d="M63.3872 31.1083C59.2485 31.2007 55.1323 30.4739 51.2735 28.9693C47.4146 27.4647 43.8888 25.2118 40.8972 22.3391C37.9055 19.4665 35.5068 16.0304 33.838 12.2271C32.1691 8.42377 31.2627 4.32769 31.1707 0.172725L36.1212 0.0621338C36.1988 3.56443 36.9628 7.01708 38.3696 10.2229C39.7763 13.4288 41.7982 16.3252 44.3198 18.7466C46.8415 21.1679 49.8135 23.0669 53.0661 24.3352C56.3189 25.6035 59.7885 26.2162 63.2771 26.1382L63.3872 31.1083Z" fill="#808080"/>
<path d="M22.8394 12.7797C22.8394 18.2417 18.4115 22.6696 12.9495 22.6696C7.48751 22.6696 3.05969 18.2417 3.05969 12.7797C3.05969 7.31771 7.48751 2.88989 12.9495 2.88989C18.4115 2.88989 22.8394 7.31771 22.8394 12.7797Z" fill="#808080"/>
<path d="M61.4101 7.83489C61.4101 11.1121 58.7534 13.7688 55.4763 13.7688C52.1991 13.7688 49.5424 11.1121 49.5424 7.83489C49.5424 4.55769 52.1991 1.901 55.4763 1.901C58.7534 1.901 61.4101 4.55769 61.4101 7.83489Z" fill="#808080"/>
<path fill-rule="evenodd" clip-rule="evenodd" d="M36.452 57.0177H27.0277L25.2798 50.8557H24.8537L26.6986 57.36H36.7811L38.3995 51.6544H37.9733L36.452 57.0177ZM36.1718 47.072L31.7399 40.4861L28.2251 45.7091L30.4156 43.164L31.2007 43.7626L26.3433 50.9807L27.7751 56.0287H35.7045L37.1363 50.9807L32.2791 43.7626L33.0812 43.185L36.0058 46.9863C36.0615 47.0117 36.1169 47.0404 36.1718 47.072ZM32.1948 50.7414C32.1948 50.5293 32.0088 50.323 31.7399 50.323V49.334C32.518 49.334 33.1838 49.9469 33.1838 50.7414H32.1948ZM39.4994 50.2455L32.537 39.8992C32.1628 39.3432 31.3169 39.3432 30.9427 39.8992L23.9803 50.2455C23.8336 50.4634 23.7904 50.7312 23.8614 50.9817L25.695 57.4462L24.4893 62.0835C24.3394 62.6597 24.7928 63.2178 25.4104 63.2178H38.0693C38.6871 63.2178 39.1402 62.6597 38.9904 62.0835L37.7847 57.4462L39.6182 50.9817C39.6893 50.7313 39.6461 50.4635 39.4994 50.2455ZM26.6263 61.392H36.8533L36.0621 58.349H27.4175L26.6263 61.392ZM3.41525 51.4855C2.00079 54.9002 1.21652 58.5402 1.09746 62.229H2.9182C3.03657 58.7792 3.77346 55.3758 5.09645 52.1818C6.54574 48.683 8.66998 45.5038 11.3479 42.8258C14.0258 40.148 17.205 38.0237 20.7039 36.5745C24.2027 35.1251 27.9529 34.3792 31.74 34.3792C35.5271 34.3792 39.2772 35.1251 42.776 36.5745C46.2749 38.0237 49.4541 40.148 52.132 42.8258C54.8099 45.5038 56.9342 48.683 58.3834 52.1818C59.7065 55.3758 60.4434 58.7792 60.5617 62.229H62.3825C62.2634 58.5402 61.4791 54.9002 60.0647 51.4855C58.524 47.7658 56.2656 44.386 53.4187 41.5392C50.5719 38.6923 47.1921 36.4339 43.4725 34.8932C39.7528 33.3525 35.7661 32.5595 31.74 32.5595C27.7138 32.5595 23.7271 33.3525 20.0075 34.8932C16.2878 36.4339 12.9081 38.6922 10.0612 41.5392C7.21427 44.386 4.95598 47.7658 3.41525 51.4855ZM63.372 62.229C63.2526 58.4102 62.4425 54.6418 60.9783 51.107C59.3879 47.2673 57.0568 43.7785 54.1181 40.8399C51.1793 37.9011 47.6906 35.57 43.8509 33.9795C40.0113 32.3891 35.896 31.5705 31.74 31.5705C27.584 31.5705 23.4687 32.3891 19.629 33.9795C15.7894 35.57 12.3006 37.9011 9.36185 40.8399C6.42311 43.7785 4.09198 47.2673 2.50155 51.107C1.03738 54.6418 0.227374 58.4102 0.107985 62.229C0.097689 62.5583 0.0925293 62.8879 0.0925293 63.218H3.89022C3.89022 59.5607 4.61058 55.9391 6.01015 52.5603C7.40974 49.1814 9.46114 46.1112 12.0472 43.5251C14.6333 40.939 17.7034 38.8877 21.0823 37.4881C24.4612 36.0886 28.0827 35.3682 31.74 35.3682C35.3972 35.3682 39.0187 36.0886 42.3976 37.4881C45.7765 38.8877 48.8466 40.9391 51.4327 43.5252C54.0188 46.1113 56.0702 49.1814 57.4697 52.5603C58.8693 55.9391 59.5897 59.5607 59.5897 63.218H63.3874C63.3874 62.8879 63.3822 62.5583 63.372 62.229ZM51.6328 28.0479C55.0628 29.3853 58.7026 30.0881 62.3764 30.1256L62.31 27.1313C59.0259 27.0863 55.7734 26.4523 52.7071 25.2567C49.333 23.9411 46.2503 21.9713 43.6349 19.4599C41.0196 16.9485 38.9228 13.9448 37.464 10.6203C36.1379 7.59795 35.3626 4.36417 35.1721 1.07257L32.1974 1.13903C32.3976 4.82486 33.2594 8.44687 34.7438 11.8297C36.3606 15.5144 38.6844 18.8431 41.5823 21.6257C44.4801 24.4084 47.8954 26.5906 51.6328 28.0479ZM31.1708 0.172725C31.1709 0.176423 31.171 0.180121 31.1711 0.183819C31.1784 0.509988 31.1908 0.835793 31.2081 1.16112C31.4116 4.97625 32.3018 8.72573 33.8382 12.2271C35.507 16.0304 37.9057 19.4665 40.8973 22.3391C43.8889 25.2118 47.4147 27.4647 51.2736 28.9693C54.8249 30.354 58.5942 31.08 62.3983 31.1148C62.724 31.1178 63.0499 31.1157 63.376 31.1086C63.3799 31.1085 63.3836 31.1084 63.3874 31.1083L63.2772 26.1382C63.2741 26.1383 63.271 26.1384 63.2679 26.1384C59.7825 26.2151 56.3161 25.6024 53.0663 24.3352C49.8136 23.067 46.8416 21.1679 44.3199 18.7466C41.7983 16.3252 39.7764 13.4288 38.3697 10.2229C36.9643 7.01996 36.2004 3.57063 36.1215 0.0715643C36.1214 0.0684209 36.1214 0.0652773 36.1213 0.0621338L31.1708 0.172725ZM12.9492 21.6807C17.8649 21.6807 21.85 17.6956 21.85 12.7799C21.85 7.86403 17.8649 3.87899 12.9492 3.87899C8.03337 3.87899 4.04834 7.86403 4.04834 12.7799C4.04834 17.6956 8.03337 21.6807 12.9492 21.6807ZM55.4754 12.7799C58.2064 12.7799 60.4203 10.5659 60.4203 7.83492C60.4203 5.10392 58.2064 2.89001 55.4754 2.89001C52.7445 2.89001 50.5305 5.10392 50.5305 7.83492C50.5305 10.5659 52.7445 12.7799 55.4754 12.7799ZM22.839 12.7799C22.839 18.2418 18.4111 22.6697 12.9492 22.6697C7.48718 22.6697 3.05936 18.2418 3.05936 12.7799C3.05936 7.31783 7.48718 2.89001 12.9492 2.89001C18.4111 2.89001 22.839 7.31783 22.839 12.7799ZM55.4754 13.7688C58.7526 13.7688 61.4093 11.1121 61.4093 7.83492C61.4093 4.55772 58.7526 1.90103 55.4754 1.90103C52.1982 1.90103 49.5415 4.55772 49.5415 7.83492C49.5415 11.1121 52.1982 13.7688 55.4754 13.7688Z" fill="#808080"/>
</g>
</g>
<defs>
<clipPath id="clip0_6197_16001">
<rect width="63.2949" height="63.2949" fill="white" transform="translate(0.0924072 0.0621338)"/>
</clipPath>
<clipPath id="clip1_6197_16001">
<rect width="63.2949" height="63.2949" fill="white" transform="translate(0.0925293 0.0621338)"/>
</clipPath>
</defs>
</svg>
